<?xml version="1.0" encoding="utf-8"?>
<!-- Generator: Adobe Illustrator 23.0.1, SVG Export Plug-In . SVG Version: 6.00 Build 0)  -->
<svg version="1.1" id="Layer_1" xmlns="http://www.w3.org/2000/svg" xmlns:xlink="http://www.w3.org/1999/xlink" x="0px" y="0px"
	 viewBox="0 0 1920 1080" style="enable-background:new 0 0 1920 1080;" xml:space="preserve">
<style type="text/css">
	
		.st0{opacity:0.31;fill:none;stroke:#FFFFE5;stroke-width:2;stroke-linecap:round;stroke-linejoin:round;stroke-miterlimit:3.864;stroke-dasharray:25,15,2,15;}
</style>
<path class="st0" d="M2101.48,36.65c-21.11-3.21-43.28-0.23-60.41-14.2c1.26,0.98,2.62,1.86,3.9,2.81
	c-11.22-11.85-9.68-30.86-9.83-45.82c-0.14-13.77-13.31-31.4-28.09-31.46c-18.54-0.08-20.82,21.14-33.64,29.73
	c-6.4,4.29-14.73,6.54-21.86,4.01c-7.79-2.77-14.54-10.35-22.99-4.75c-6.49,4.3-7.8,13.32-14.91,17.62
	c-6.05,3.66-15.04,4.5-20.71,7.25c-7.46,3.62-13.59,5.88-22.33,4.69c-10.2-1.39-14.4-6.51-21.23-13.47
	c-5.97-6.09-11.73-11.8-20.6-13.22c-8.64-1.38-14.91,0.58-21.29-6.88c-11.01-12.89-17.58-31.25-32.03-40.94
	c-17.17-11.51-30.69-6.23-41.09,10.58c-5.33,8.62-9.34,18.75-19.06,23.03c-4.43,1.95-9.65,2.26-14,4.37
	c-3.62,1.76-4.08,3.69-9.11,4.68"/>
<path class="st0" d="M1692.2-25.33c-1.58-74.3-3.35-148.6-4.75-222.9c-1.13-59.91-0.78-119.87-0.96-179.79
	c-0.13-44.28-0.25-88.56-0.38-132.85"/>
<path class="st0" d="M1692.2-25.33c-14.45,3.22-23.34,19.37-33.18,29.32c-9.01,9.11-31.75,12.42-33.8,27.43
	c-0.78,5.69,5.14,14.35,8.2,19.1c4.22,6.55,10.48,10,15.81,15.41c10.7,10.89,16.59,25.4,26.27,36.72
	c8.63,10.09,16.19,26.62,7.85,39.15c-3.65,5.49-9.69,9.03-13.92,13.82c-5.03,5.69-10.52,11.55-15.23,17.51
	c-8.8,11.14-13.86,27.92,1.32,37.08c6.48,3.91,18.81,1.41,25.73,1.33c6.89-0.08,13.24,0.92,20.01,2.06
	c12.91,2.18,30.23,9.43,28.25,25.17c-1.91,15.14-14.21,23.28-25.27,31.92c-16,12.5-14.75,22.63-4.63,38.69
	c6.09,9.67,16.53,30.9-2.2,31.74c-7.94,0.36-14.56-2.9-21.89-5.28c-7.92-2.58-15.73-2.57-23.88-3.94
	c-7.58-1.27-11.83-3.35-19.14-0.03c-6.91,3.13-12.99,8.02-19.73,11.43c-6.36,3.22-12.76,7.77-19.99,8.9
	c-6.48,1.01-12.55-1.58-18.93-2.5c-7.41-1.06-15.66-1.77-22.99,0.12c-8.27,2.13-12.18,7.58-18.75,12.63
	c-5.39,4.15-11.95,7.4-18.06,10.42c-6.86,3.39-12.16,7.92-18.36,11.99c-5.33,3.5-12.46,5.51-18.31,8.76
	c-6.8,3.78-12.86,9.51-19.59,13.67c-4.86,3.01-7.12,5.98-10.53,9.96c-4.74,5.52-11.73,9.68-16.98,14.98
	c-10.62,10.72-23.19,20.16-38.68,22.99c-4.85,0.89-15.59,3.28-19.54,0.2c0.26-0.1,0.52-0.21,0.78-0.31
	c-13.5-3.46-23.59-7.81-32.42-19.54c-7.02-9.32-8.49-19.05-17.78-28.06c-9.83-9.53-28.35-11.68-41.27-11.1
	c-6.41,0.29-37.93,4.02-38.24,9.2c-10.01,2-20.39,6.14-31.12,5.45c-11.33-0.73-22.01-6.28-33.42-6.56
	c-23.16-0.58-38.01,26.01-41.42,45.85c-0.87,5.08-1.67,10.2,0.08,15.23c2.01,5.77,7.04,9.92,10.02,15.27
	c5.81,10.39,6.72,19.96,6.17,31.53c-0.57,11.9-1.08,23.96-0.08,35.9c0.99,11.96,6.69,20.86,12.32,31.21
	c10.05,18.44,16.96,43.69,1.27,61.67c-8.49,9.73-21.74,12.03-32.18,18.74c-10.48,6.74-12.62,15.5-16.37,26.52
	c-7.81,22.94-26.93,33.29-49.52,39.12c-23.03,5.94-49.23-0.12-64.41,22.96c-2.79,4.24-7.09,10.21-9.05,14.81
	c-1.79,4.18-2.3,9.62-4.24,14.19c-4.73,11.11-9.41,22.9-11.12,34.95c-0.71,4.96,0.14,9.76,0.11,14.73
	c-0.05,6.05-2.15,10.02-3.83,15.78c-3.08,10.6-4.88,21.41-9.93,31.46c-2.65,5.28-6.03,9.67-9.74,14.35
	c-3.64,4.59-5.05,9.95-8.41,14.45c-6.08,8.16-18.66,13.52-26.93,18.63c-10.09,6.24-21.12,15.84-32.46,19.69
	c-6.38,2.17-9.97-0.28-15.42-4.22c-1.54-1.11-1.91-0.63-3.58-2.42c-3.16-3.37-1.47-4.55-3.26-7.34
	c-6.93-10.76-19.53-8.77-29.48-5.22c-11.4,4.07-22.21,2.66-28.69,14.46c-6.07,11.07-4.47,22.32-6.35,34.22
	c-1.73,10.99-8.02,20.77-16.45,27.91c-19.91,16.85-32.84,33.11-41.71,57.67c-7.91,21.93-0.89,44.92,0.88,67.38
	c1,12.74,0.14,24.05-4.67,35.83c-4.16,10.2-6.15,20.24-7.01,31.24c-1.75,22.48-7.41,47.46-33.83,52.4
	c-11.63,2.18-23.38,3.3-35.08,5.58c-9.25,1.8-23.56,2.27-30.56,9.59c-8.87,9.28,0.13,21.21-3.71,31.85
	c-5.71,15.86-19.23-0.88-24.18-8.14c-4.59-6.72-13.73-21.51-14.03-29.47c0.86,0.85,1.81,1.63,2.66,2.49
	c-6.81-10.18-21.72-17.47-33.25-20.82c-14.3-4.15-27.54-1.59-41.43,2.37c-15.59,4.44-23.43-1.55-37.63-7.61
	c-6.16-2.63-14.42-5.38-19.52-9.72c-2.72-2.31-11.68-10.92-11.62-12.91c-22.38-10.74-35.43-21.02-40.01-46.29
	c-1.91-10.52-1.7-21.01,0-31.55c1.54-9.51,5.93-20.18,4.8-29.84c-0.99-8.48-9.36-20.51-15.04-27.03
	c-7.09-8.15-18.56-10.83-27.13-16.69c-12.15-8.29-31.25-40.03-48.36-24.7c-6.67,5.98-7.73,18.37-4.92,26.51
	c4.27,12.39,16.99,11.91,27.78,13.52c8.99,1.34,22.23,3.74,22.43,15.08c0.18,10.41-7.46,18.98-17.33,20.45
	c-10.24,1.52-22.28-4.57-31.88-1.94c-12.22,3.35-10.77,14.34-15.8,23.01c-7.49,12.89-15.25-2.33-21-7.8
	c-7.52-7.16-14.87-12.95-25.83-11.63c-10.94,1.32-19.65,11.51-17.87,22.77c2.07,13.09,12.29,14.85,22.54,19.35
	c23.39,10.27,2,39.64-12.79,46.78c-9.03,4.36-19.8,4.39-29.63,4.3c-9.22-0.08-23.52-1.5-28.97,7.61c-5.19,8.68-2.5,20.24-3.29,29.77
	c-0.9,10.82-0.4,21.65-0.08,32.31c0.33,11-0.73,21.41,3.72,31.76c3.97,9.23,12.73,14.26,13.04,25.35
	c0.29,10.22-13.76,16.77-22.87,18.93c-10.4,2.47-18.62-3.07-28.63-4.56c-11.44-1.7-19.85-2.99-27.3,7.04
	c-6.92,9.32-4.17,19.54-3.5,30.36c0.61,9.79,2.3,21.33-2.28,29.64"/>
</svg>
