<?xml version="1.0" encoding="utf-8"?>
<!-- Generator: Adobe Illustrator 23.0.1, SVG Export Plug-In . SVG Version: 6.00 Build 0)  -->
<svg version="1.1" id="Layer_1" xmlns="http://www.w3.org/2000/svg" xmlns:xlink="http://www.w3.org/1999/xlink" x="0px" y="0px"
	 viewBox="0 0 7632 3744" style="enable-background:new 0 0 7632 3744;" xml:space="preserve">
<style type="text/css">
	.st0{fill:none;stroke:#231F20;stroke-miterlimit:3.864;}
	
		.st1{fill:none;stroke:#584227;stroke-width:2.88;stroke-linecap:round;stroke-linejoin:round;stroke-miterlimit:3.864;stroke-dasharray:25,11;}
</style>
<rect x="1.75" y="19.12" class="st0" width="7606.1" height="3723.04"/>
<polyline class="st1" points="2236.34,19.13 2236.18,58.79 2235.4,160.87 2234.62,160.87 2230.41,156.03 2227.76,155.09 
	2224.47,155.09 2222.91,155.87 2220.88,158.52 2219.64,160.87 2218.39,166.96 2215.27,169.14 2212.3,170.38 2208.09,170.86 
	2200.91,168.21 2197.95,167.89 2194.2,169.14 2188.42,172.57 2184.51,176.48 2177.8,189.9 2174.22,193.8 2169.53,202.23 
	2163.6,205.04 2156.88,206.45 2155.95,210.04 2157.98,212.84 2160.63,213.79 2170,211.13 2174.83,213.79 2176.56,215.5 
	2176.87,219.09 2174.68,222.21 2166.88,230.01 2165.63,235.01 2166.25,239.23 2167.03,240.79 2168.91,242.19 2172.81,243.13 
	2173.27,244.06 2173.12,246.4 2169.69,256.4 2169.53,259.05 2175.93,267.01 2180,274.67 2182.17,274.97 2184.68,273.25 
	2185.92,271.69 2187.49,268.26 2189.83,266.23 2196.22,265.6 2198.73,267.16 2199.34,268.89 2198.73,273.72 2196.85,276.06 
	2192.95,277.62 2192.63,279.81 2194.04,284.18 2196.54,301.5 2196.54,307.75 2195.6,312.91 2194.35,316.03 2187.32,322.58 
	2186.54,324.3 2186.54,328.2 2184.05,331.16 2179.05,334.28 2173.75,336.01 2171.25,338.5 2169.22,344.59 2168.29,345.38 
	2165,346.62 2162.2,346.47 2159.39,344.59 2157.36,343.96 2156.42,344.28 2155.17,346.77 2154.86,348.96 2155.32,357.08 
	2156.27,358.64 2156.42,361.45 2152.83,363.16 2140.19,364.26 2137.85,366.13 2136.59,369.57 2136.44,372.22 2137.53,373.94 
	2147.68,376.13 2149.08,378.15 2149.08,379.72 2146.9,381.59 2144.09,381.74 2142.83,380.96 2140.49,377.52 2136.29,377.06 
	2133.78,380.18 2127.85,384.4 2126.92,385.65 2126.45,391.89 2121.93,398.28 2121.46,400.94 2124.58,405.16 2127.85,406.87 
	2133.78,408.43 2135.19,409.53 2135.97,411.4 2135.97,415.62 2137.22,416.08 2139.56,415.3 2142.68,416.86 2144.71,420.77 
	2143.78,424.04 2141.12,425.76 2137.69,425.76 2128.17,423.26 2124.73,427.79 2124.88,431.54 2126.45,434.19 2129.73,436.53 
	2131.6,437.16 2139.09,435.28 2147.83,436.99 2156.88,437.31 2159.39,438.4 2160.79,441.06 2160.48,444.65 2159.39,446.99 
	2155.02,451.67 2154.39,454.64 2155.17,457.45 2158.92,461.97 2160.48,462.91 2162.51,463.53 2172.03,463.38 2176.24,465.41 
	2178.43,468.21 2180.46,472.74 2187.49,478.84 2191.7,485.86 2197.17,491.01 2197.78,496.16 2197.32,498.5 2195.13,502.72 
	2190.29,508.33 2190.14,509.74 2190.92,512.4 2194.82,517.38 2199.34,529.87 2199.51,533.94 2195.76,546.11 2191.54,552.5 
	2190.92,554.23 2191.7,557.35 2193.26,559.38 2200.59,563.28 2202.15,563.28 2204.97,562.35 2206.05,562.65 2207.46,564.69 
	2206.05,568.11 2204.34,568.74 2201.85,568.43 2194.98,565.62 2192.79,565.94 2191.85,566.72 2191.54,568.74 2194.04,571.71 
	2209.49,578.11 2218.39,580.6 2223.23,583.89 2234.78,588.25 2236.96,591.69 2239.3,598.4 2243.83,603.08 2248.98,606.36 
	2250.07,608.23 2249.92,611.04 2248.67,614.48 2246.32,618.23 2241.49,623.23 2241.96,625.72 2245.24,630.25 2245.86,631.96 
	2244.15,637.74 2243.98,643.67 2242.27,645.38 2237.44,645.54 2236.03,647.89 2237.44,654.28 2235.88,659.28 2236.18,660.99 
	2237.59,663.03 2239.15,663.81 2244.93,663.33 2245.71,665.52 2244.61,667.24 2231.97,668.02 2230.56,668.8 2227.91,674.89 
	2229.94,679.89 2229.47,682.54 2228.54,684.72 2226.98,681.76 2225.73,674.26 2223.54,673.96 2221.35,675.52 2220.42,679.57 
	2221.05,682.38 2226.35,685.97 2229.32,691.91 2229.32,693.93 2227.59,695.65 2220.26,696.27 2218.54,697.21 2218.07,701.11 
	2219.64,703.92 2221.83,706.26 2222.44,709.38 2221.05,711.41 2219.64,711.89 2214.02,710.16 2212.77,711.41 2213.08,713.75 "/>
<polyline class="st1" points="2213.08,713.75 2214.02,715.01 2224.32,721.4 2227.13,722.65 2234.31,724.37 2236.49,726.4 
	2237.12,728.11 2236.34,739.82 2238.22,745.45 2240.4,749.03 2240.71,753.4 2239,757.93 2236.49,760.27 2235.71,763.08 
	2242.9,771.67 2246.64,779.47 2252.57,788.52 2258.81,793.52 2263.81,801.16 2263.97,804.28 2263.5,806.16 2261,810.53 
	2255.85,813.5 2248.05,814.13 2246.8,815.69 2246.49,817.25 2247.58,819.59 2250.54,820.99 2252.42,820.84 2255.22,819.11 
	2259.29,818.81 2261.32,819.74 2262.41,821.46 2260.54,831.76 2258.03,835.82 2256,842.23 2258.19,845.5 2262.72,848.94 
	2263.19,850.33 2263.03,852.06 2259.44,855.33 2255.85,856.74 2253.98,859.08 2251.79,868.13 2244.46,878.75 2241.96,885.46 
	2242.42,891.4 2241.8,900.45 2239.61,904.81 2231.34,915.43 2228.54,917.93 2223.39,920.89 2218.54,922.61 2197,926.2 
	2188.42,928.23 2180.93,931.04 2175.61,934.01 2172.34,936.35 2169.69,939.47 2167.34,946.5 2167.19,952.27 2164.54,957.57 
	2160.95,960.23 2154.39,962.57 2151.74,965.54 2150.95,967.57 2151.58,971.47 2152.83,974.74 2155.49,978.65 2155.8,981.92 
	2154.39,985.21 2149.71,988.95 2149.24,990.98 2151.27,996.6 2146.27,1000.19 2145.18,1002.06 2145.02,1004.25 2147.83,1013.77 
	2149.24,1015.33 2152.05,1016.26 2157.36,1016.11 2158.29,1016.58 2159.7,1018.77 2158.76,1022.67 2156.42,1024.7 2148.93,1026.1 
	2145.49,1024.7 2138.31,1018.6 2136.59,1018.45 2135.19,1019.23 2133.47,1021.89 2133.47,1026.41 2133.78,1030.79 2135.34,1034.84 
	2135.19,1037.33 2133.95,1039.68 2132.39,1041.08 2125.83,1043.11 2123.64,1045.45 2122.08,1050.6 2124.27,1057.48 2123.95,1059.97 
	2122.71,1061.06 2110.68,1066.99 2108.03,1069.5 2106.47,1072.3 2107.56,1076.99 2114.59,1087.28 2115.83,1093.38 2118.8,1099.16 
	2126.29,1105.4 2128.32,1108.21 2128.48,1111.33 2127.07,1115.08 2121.93,1120.23 2118.8,1121.63 2116.78,1121.94 2111.78,1120.38 
	2106.47,1115.54 2104.59,1115.08 2102.41,1117.26 2098.66,1125.53 2095.07,1129.75 2091.95,1132.87 2081.34,1139.43 2066.66,1146.3 
	2061.36,1146.76 2052.46,1145.82 2048.25,1145.98 2043.41,1146.92 2039.35,1149.1 2034.51,1155.66 2029.67,1164.09 2028.42,1168.3 
	2028.58,1172.05 2029.05,1173.3 2031.86,1175.01 2034.35,1175.33 2041.37,1174.55 2047,1176.74 2050.44,1179.23 2051.37,1181.1 
	2052,1184.06 2051.52,1188.28 2049.49,1190 2044.19,1192.65 2042.15,1196.4 2040.44,1205.77 2039.51,1222 2038.1,1226.69 
	2019.52,1252.75 2015.93,1258.68 2006.73,1269.77 2001.27,1273.35 1992.83,1275.07 1983.31,1278.35 1978.78,1284.13 
	1976.29,1288.81 1969.1,1295.67 "/>
<polyline class="st1" points="1969.1,1295.67 1966.92,1299.26 1965.2,1307.23 1959.12,1321.59 1958.34,1332.04 1960.68,1346.4 
	1959.9,1353.59 1955.22,1366.38 1951.15,1372.48 1946.78,1376.23 1942.1,1377.94 1937.1,1377.47 1934.46,1376.06 1931.49,1372.16 
	1929.3,1365.45 1928.68,1360.92 1930.08,1354.84 1933.98,1346.09 1933.98,1343.6 1933.52,1340.79 1930.71,1337.5 1928.05,1335.94 
	1925.09,1335.64 1920.41,1338.28 1917.12,1342.04 1915.73,1345.16 1914,1353.28 1911.82,1357.96 1910.57,1364.2 1909.32,1366.08 
	1900.9,1371.84 1892.15,1383.72 1889.19,1385.43 1885.59,1385.11 1882.95,1383.55 1881.39,1381.06 1880.76,1378.09 1882.47,1372.63 
	1890.75,1359.52 1891.37,1357.02 1889.97,1353.74 1888.25,1351.87 1885.29,1350.31 1879.35,1349.84 1876.22,1350.62 
	1867.34,1354.52 1864.99,1357.49 1864.21,1359.99 1863.27,1368.42 1862.18,1370.45 1860.46,1372.32 1853.29,1375.28 
	1851.56,1378.72 1851.41,1382.31 1852.19,1384.33 1854.69,1386.84 1860,1390.58 1860.62,1392.3 1860.46,1395.11 1859.06,1397.6 
	1856.71,1399.64 1849.54,1402.13 1846.42,1405.57 1845.17,1409.31 1845.95,1416.81 1845.64,1418.06 1843.92,1420.24 
	1840.17,1421.18 1835.95,1419.77 1834.86,1417.89 1835.17,1413.06 1833.15,1408.84 1824.71,1398.08 1822.22,1396.35 1820.97,1396.2 
	1819.1,1397.6 1819.25,1399.48 1823.63,1405.25 1826.44,1414.94 1825.97,1421.18 1821.75,1429.6 1820.81,1441.79 1822.22,1451.77 
	1828,1462.54 1834.71,1471.59 1843.92,1480.18 1856.71,1487.99 1860.78,1491.11 1863.74,1494.23 1866.71,1503.13 1866.39,1506.56 
	1865.3,1508.91 1866.24,1512.18 1868.9,1512.33 1873.73,1508.91 1874.98,1505.94 1873.88,1500.79 1874.51,1496.1 1875.44,1494.23 
	1877.64,1492.52 1881.69,1492.2 1885.44,1495.16 1887.47,1499.54 1887.15,1505.47 1884.66,1509.21 1881.07,1512.96 1875.29,1516.24 
	1873.73,1516.24 1871.86,1517.64 1871.54,1519.05 1873.58,1522.01 1873.73,1526.7 1870.46,1529.97 1865.3,1531.53 1858.9,1540.11 
	1855.78,1545.89 1854.22,1545.58 1850.47,1541.06 1847.51,1539.03 1845.64,1538.72 1842.36,1539.5 1837.05,1539.03 1834.39,1541.06 
	1831.12,1547.45 1829.71,1552.3 1830.18,1560.72 1829.24,1564.01 1828.15,1564.94 1821.75,1567.75 1814.42,1567.28 1808.17,1566.03 
	1797.71,1569.77 1794.75,1571.5 1793.03,1573.84 1791.32,1580.4 1793.66,1588.2 1796.15,1592.88 1800.37,1593.82 1803.95,1593.19 
	1828.62,1582.57 1834.56,1580.55 1838.93,1576.65 1841.88,1575.87 1842.2,1580.08 1843.14,1584.6 1845.17,1589.45 1845.32,1591.79 
	1843.14,1597.09 1838.61,1605.21 1835.64,1613.33 1825.19,1621.6 1816.13,1626.28 1805.98,1629.87 1804.74,1630.65 1801.61,1631.28 
	1778.98,1629.72 1774.15,1630.81 1771.96,1631.91 1769.61,1633.77 1768.05,1636.28 1767.9,1644.7 1769.61,1648.45 1771.64,1650.32 
	1775.08,1652.5 1778.36,1653.13 1780.7,1652.98 1789.91,1649.7 1791.47,1649.86 1794.75,1650.79 1798.49,1654.23 1798.81,1656.1 
	1797.87,1657.97 1790.37,1661.87 1786.47,1667.33 "/>
<polyline class="st1" points="1786.47,1667.33 1783.51,1674.21 1782.1,1680.76 1784.76,1691.38 1793.66,1715.26 1793.97,1723.38 
	1792.41,1729.47 1790.22,1732.89 1786,1735.23 1779.45,1736.33 1776.02,1736.02 1773.52,1736.65 1771.64,1738.05 1772.12,1753.97 
	1774.76,1762.25 1776.8,1766.15 1776.95,1768.96 1772.58,1773.64 1769.61,1774.74 1766.18,1774.74 1759.93,1771.61 1756.97,1767.71 
	1756.19,1765.52 1755.25,1764.43 1751.83,1763.65 1746.2,1765.99 1743.71,1768.02 1741.83,1771.77 1742.93,1776.45 1745.58,1779.89 
	1748.23,1781.91 1760.56,1784.88 1771.49,1785.66 1774.61,1787.06 1778.36,1786.13 1783.98,1785.97 1785.54,1787.06 
	1786.32,1788.79 1786.17,1791.59 1788.03,1799.7 1791.93,1808.6 1791,1812.04 1788.66,1815.01 1785.69,1816.41 1781.64,1815.31 
	1778.98,1811.72 1775.86,1810.63 1771.64,1810.79 1763.53,1812.5 1754.17,1812.35 1751.66,1810.63 1748.07,1809.23 1739.64,1807.04 
	1726.54,1795.65 1720.76,1795.02 1717.95,1795.33 1716.07,1797.36 1715.92,1800.18 1718.57,1809.23 1719.83,1811.1 1727.93,1818.43 
	1733.09,1825.93 1741.83,1849.97 1744.95,1855.59 1749.95,1860.58 1755.25,1863.4 1770.86,1867.77 1775.08,1869.48 1777.89,1872.45 
	1779.92,1879.16 1778.2,1884.16 1774.76,1887.74 1763.69,1891.65 1748.23,1889.77 1742.15,1886.81 1734.34,1881.5 1731.69,1880.57 
	1729.34,1880.87 1724.19,1883.69 1721.22,1887.9 1720.44,1891.96 1721.85,1896.64 1726.22,1900.7 1733.56,1910.22 1740.74,1914.75 
	1744.95,1915.53 1749.01,1914.59 1761.66,1906.94 1766.96,1905.07 1769.15,1905.07 1773.36,1906.47 1776.02,1909.13 
	1777.27,1911.31 1777.58,1917.25 1773.52,1920.37 1770.4,1925.36 1767.74,1934.11 1766.03,1945.81 1764,1953.62 1757.29,1968.28 
	1755.25,1971.26 1751.35,1975.31 1748.39,1981.25 1744.49,1985.62 1736.52,1991.7 1728.1,1994.82 1724.51,1996.86 1715.45,2002.94 
	1709.98,2008.72 1695.47,2014.81 1691.25,2017.93 1688.91,2020.89 1682.05,2032.13 1680.32,2038.53 1677.98,2040.25 
	1676.42,2043.06 1670.03,2048.52 1664.41,2056.96 1662.07,2062.89 1658.32,2068.81 1656.44,2076.77 1656.44,2080.52 1657.7,2086.45 
	1657.85,2096.75 1659.1,2105.03 1662.69,2116.42 1671.9,2138.11 1673.3,2144.67 1673.61,2147.79 1672.83,2154.04 1673.78,2157.79 
	1677.05,2164.81 1679.55,2171.84 1680.95,2173.24 1690.17,2178.86 1696.56,2185.72 1704.37,2192.6 1708.27,2198.21 1715.76,2211.48 
	1719.98,2216.64 1730.91,2221.47 1734.18,2223.97 1737.15,2228.03 1742.61,2240.52 1742.46,2247.7 1743.86,2250.98 1742.61,2261.43 
	1739.34,2270.8 1739.64,2271.58 1742.15,2268.93 1742.76,2269.4 1740.9,2274.4 1737.61,2277.82 1737,2277.35 1737.15,2265.81 
	1736.05,2265.5 1735.27,2266.11 1734.18,2271.43 1734.96,2272.52 1733.56,2272.83 1733.56,2275.48 1728.41,2279.23 1725.76,2283.28 
	1724.19,2284.38 1722.63,2287.66 1719.51,2289.53 1717.01,2289.53 1716.39,2288.75 1716.39,2287.66 1719.98,2283.91 1718.88,2283.6 
	1712.17,2287.19 1685.64,2288.75 1682.98,2289.69 1676.42,2288.44 1656.61,2293.43 1643.18,2294.84 1640.05,2296.87 
	1635.37,2296.55 1627.88,2298.89 1620.54,2300.3 1610.24,2300.62 1605.71,2301.86 1594.95,2303.58 1567.47,2303.89 1543.44,2308.26 
	1527.51,2315.13 1515.34,2321.53 1510.81,2326.52 1505.66,2328.87 1496.45,2336.52 1482.4,2355.09 1480.37,2356.65 1478.49,2357.11 
	1470.22,2363.67 1466.79,2365.08 1463.05,2364.45 1460.39,2362.89 1456.02,2355.72 1446.81,2347.91 1438.22,2341.98 
	1431.98,2339.01 1426.68,2337.77 1412.15,2344.01 1405.61,2345.41 1399.98,2347.28 1390.15,2352.59 1384.85,2356.18 
	1375.64,2364.92 1371.73,2369.77 1366.27,2379.28 "/>
<polyline class="st1" points="1366.27,2379.28 1363.78,2393.8 1360.34,2405.67 1359.71,2416.59 1357.68,2425.49 1357.83,2427.21 
	1355.81,2432.98 1351.59,2440.79 1350.81,2443.91 1342.7,2458.58 1339.58,2467.64 1332.39,2480.28 1329.43,2488.86 1328.96,2491.67 
	1329.74,2492.14 1329.12,2492.61 1328.18,2496.35 1329.9,2499.79 1329.59,2501.82 1330.21,2501.82 1333.34,2506.03 1336.14,2518.21 
	1337.08,2518.99 1338.17,2518.21 1338.8,2518.52 1338.17,2519.93 1335.68,2521.33 1334.9,2521.02 1333.49,2521.64 1331.46,2519.62 
	1331.15,2520.71 1332.24,2522.74 1336.46,2524.92 1341.44,2531.48 1348.95,2537.41 1352.53,2541.16 1355.49,2546.31 
	1361.43,2561.76 1367.2,2569.88 1371.42,2573.47 1378.91,2577.69 1386.09,2585.18 1388.75,2589.08 1392.18,2602.03 1393.74,2605.31 
	1395.78,2614.06 1397.34,2616.08 1399.68,2626.54 1399.83,2629.35 1401.08,2632.16 1400.76,2634.19 1402.79,2638.55 
	1405.76,2641.37 1407.01,2643.55 1409.03,2647.45 1409.03,2648.86 1403.57,2665.72 1401.7,2669.16 1399.2,2676.96 1390.93,2696.47 
	1391.56,2697.87 1392.49,2697.72 1390,2705.37 1389.68,2708.49 1376.26,2736.43 1360.49,2742.52 1353.63,2743.77 1347.85,2742.67 
	1347.85,2741.89 1340.83,2744.4 1334.73,2745.48 1321.93,2745.18 1315.07,2744.08 1297.44,2739.55 1289.32,2735.5 1284.32,2732.37 
	1275.89,2725.19 1269.18,2720.98 1264.81,2715.52 1258.1,2705.06 1251.69,2701.62 1247.48,2696.47 1238.12,2689.91 1224.22,2681.64 
	1220.95,2680.23 1214.23,2679.77 1207.98,2677.89 1204.24,2676.02 1203.78,2675.08 1191.29,2669.94 1180.67,2664.01 
	1177.71,2663.23 1171.3,2659.32 1163.66,2656.35 1154.44,2654.16 1153.98,2654.33 1154.61,2655.11 1152.27,2655.72 1151.01,2654.64 
	1139.78,2656.5 1129,2652.45 1123.7,2649.48 1117.61,2644.18 1111.68,2641.06 1107,2636.99 1102.15,2634.03 1096.69,2628.57 
	1089.67,2623.57 1086.54,2619.2 1081.56,2616.08 1079.83,2612.18 1074.37,2608.59 1070.47,2605 1062.98,2600.47 1055.32,2598.6 
	1052.83,2597.04 1050.34,2596.72 1047.83,2595.16 1036.44,2591.11 1006.32,2575.65 975.41,2563.94 962.76,2558.01 956.98,2557.08 
	949.34,2553.96 939.97,2552.4 940.29,2553.02 948.4,2556.3 944.66,2557.23 937.32,2557.55 918.44,2554.74 914.22,2552.08 
	911.88,2552.08 918.27,2550.99 918.12,2550.37 907.35,2551.15 902.51,2551.77 886.27,2556.3 879.41,2560.52 881.75,2559.89 
	874.25,2565.5 870.51,2566.6 862.71,2570.66 859.59,2570.81 852.56,2578.77 849.12,2579.87 834.46,2595.16 816.66,2610.77 
	806.83,2621.7 801.05,2631.69 798.39,2638.55 797.46,2643.24 795.12,2649.79 792.46,2654.01 790.75,2659.01 786.37,2666.81 
	785.59,2669.77 783.41,2673.84 779.35,2677.43 781.85,2672.59 784.97,2670.25 784.97,2669.47 782.32,2671.5 770.61,2685.23 
	761.4,2691.32 758.28,2698.5 755.47,2701.77 754.85,2702.09 754.37,2701.62 750.47,2705.37 748.91,2704.9 746.1,2707.24 
	746.26,2705.52 743.29,2707.24 730.49,2723.63 727.06,2730.35 725.03,2732.37 721.29,2742.67 718.32,2752.35 716.44,2764.52 
	717.69,2777.18 720.03,2785.91 726.12,2798.72 730.18,2804.18 733.15,2806.67 "/>
<polyline class="st1" points="733.15,2806.67 755.32,2825.56 760.47,2828.84 752.97,2831.96 750,2832.11 744.7,2833.67 
	733.61,2838.98 726.12,2841.64 719.57,2840.86 712.08,2837.74 706.15,2830.25 703.8,2819.01 704.12,2807.3 701.15,2794.03 
	699.27,2788.88 695.53,2784.35 677.1,2771.4 669.46,2764.21 665.88,2757.82 659.47,2740.64 651.35,2724.25 646.67,2733.15 
	642.46,2732.21 628.1,2731.43 625.29,2730.65 625.13,2729.57 615.61,2728.78 603.27,2725.81 602.66,2727.22 600.15,2739.08 
	601.25,2743.77 605.3,2750.94 608.42,2753.91 617.48,2759.38 629.66,2764.52 639.8,2773.27 645.42,2779.52 647.45,2788.41 
	641.68,2805.89 639.02,2810.11 635.9,2813.23 631.69,2816.5 627.47,2818.54 615.29,2814.16 593.13,2790.28 587.83,2786.38 
	580.49,2781.7 567.22,2775.14 552.39,2769.52 539.59,2759.69 535.22,2754.38 532.57,2748.45 532.1,2739.4 532.41,2737.52 
	538.49,2723.16 541.62,2711.92 541.93,2705.84 540.68,2700.21 539.27,2695.84 534.59,2685.86 531.17,2681.01 526.32,2676.65 
	513.83,2667.13 510.09,2663.38 497.91,2645.11 489.64,2629.19 486.98,2618.74 471.69,2587.83 466.69,2574.72 462.01,2553.33 
	462.32,2549.11 463.1,2546.77 471.22,2528.35 471.69,2525.86 470.91,2518.84 469.35,2516.65 467.47,2515.55 460.45,2513.21 
	452.49,2513.37 442.81,2515.09 425.8,2491.83 420.49,2483.09 418.15,2477.16 417.83,2473.57 418.46,2469.04 420.64,2464.52 
	423.61,2449.69 425.64,2444.84 428.14,2441.57 436.57,2435.16 440.15,2431.42 444.06,2424.08 446.09,2421.89 450.46,2419.4 
	459.36,2416.75 477.31,2415.97 483.86,2414.87 489.17,2412.06 494.48,2410.5 497.44,2407.69 500.41,2402.23 501.97,2397.4 
	508.22,2369.92 509.31,2361.8 508.22,2351.03 505.41,2339.16 498.54,2317.01 493.86,2304.98 490.58,2299.37 484.02,2290.16 
	466.22,2271.11 462.32,2265.33 448.12,2239.27 443.27,2226.62 441.41,2217.72 439.07,2211.79 434.22,2202.74 430.79,2198.06 
	426.73,2189.47 423.61,2170.59 423.15,2162.62 424.24,2142.02 425.64,2137.65 428.76,2135.77 431.1,2135.47 435.01,2136.4 
	448.9,2141.4 456.08,2140.62 460.61,2138.43 464.05,2135.16 465.44,2130.31 465.61,2127.19 465.29,2124.23 463.57,2120.33 
	457.17,2110.8 447.18,2100.19 444.68,2096.28 438.91,2089.89 435.63,2082.23 431.1,2076.77 429.39,2071.31 430.01,2068.35 
	431.1,2066.47 431.27,2060.54 430.64,2054.45 431.57,2040.87 433.91,2031.2 435.63,2026.2 435.95,2021.05 433.91,2016.06 
	431.88,2012.77 423.93,2006.06 418.78,2003.72 412.22,2002.79 387.08,1995.14 381,1992.79 372.25,1987.8 368.98,1982.96 
	361.02,1965.16 357.9,1962.35 350.25,1957.21 346.81,1956.58 344.15,1953.93 343.69,1951.74 344,1947.37 342.76,1945.5 
	334.64,1946.13 328.24,1949.55 317.32,1948.93 313.56,1949.55 305.61,1946.74 301.24,1943.94 299.36,1941.6 297.34,1933.16 
	304.05,1914.91 305.14,1904.76 304.83,1901.64 302.02,1897.57 300.3,1893.99 "/>
<path class="st1" d="M7516.09,19.13l-6.24,8.58l-1.26,9.21l0.48,14.67l-2.82,27.63l1.1,20.14l-1.4,6.39l-2.5,3.44l-13.58-0.31
	l-2.64-1.09l-6.09-3.74l-9.68-2.19l-5.15,0.47l-8.27,2.81l-19.67-2.81l-11.39,0.47l-9.37,2.19l-2.96,0.15l-6.41,2.34l-5.15,4.07
	l-5.78,7.03l-1.25,2.18l-0.31,2.5l-0.46,0.31l-0.15-1.26l-2.34,5.16l-0.31,4.68l0.31,5.3l0.93,5l4.53,10.61l0.93,5.31l-0.47,3.59
	l-1.88,3.12l-5.78,4.37l-9.36,2.34l-11.08,3.75l-2.19,1.86l-2.49,3.75l-2.49,7.02l-1.56,10.93l-0.94,2.97l-3.74,4.99l-8.28,4.68
	l-2.49,3.12l-1.25,2.97v4.68l2.18,6.56l2.34,5l6.41,18.25l1.56,2.19l0.93,2.81l0.63,4.53l-1.56-2.5l0.47,5l-0.78,1.25l1.41,13.12
	l2.18,10.15 M300.3,1893.99l-3.12-6.87l-4.05-3.74l-18.27-12.49l-7.02-3.75l-12.95-10.61l-10.46-10.93l-9.05-13.73l-1.88-0.16
	l-2.49,0.94l-2.66-1.09l-5.78,0.63l-2.97-1.56l-4.05-3.6l-2.81-1.4l-8.12-0.63l-6.87-3.59l-4.05,3.75l-6.4-6.24l-2.19-2.82
	l-1.1-2.96l-1.56-6.24l-0.78-1.25l0.47-3.12l2.04-3.29l-0.48-3.27l0.48-2.81l-1.1-2.19l-4.22-1.88l-8.58-5.61l-19.83-16.54
	l-5.62-4.07l-2.03-0.47l-5.63,1.56l-4.68,3.59l-0.93,1.56l-4.22,1.88l-4.83,4.53l-9.06,11.23l-2.64,2.66l-7.19,4.84l-13.42,7.19
	l-10.31-0.16l-8.89-1.4l-12.65-5l-0.93,0.15l0.62-0.62l-0.3-0.32l-11.09-7.34l-2.18-2.96l-6.71-15.77l-3.9-5.3v-2.66l-1.72-5
	l-5.3-11.08l-0.31-9.37l5.93-5.15l5.46-2.66l-0.47-1.88l1.56-1.09l1.71-4.05l10.93,0.15l8.74-6.39l5-1.25l6.71-7.34l0.48-1.88v-4.83
	l-7.97,0.78l-1.88-0.63l-0.78-1.71l-0.62-4.53l-3.75-5.93l-11.39,3.59l-22,3.75l-6.71,0.47l-9.68-1.56l-2.66-1.56l-3.44-3.12"/>
<polyline class="st1" points="7360.93,288.87 7361.56,290.43 7361.39,301.67 7359.53,312.28 7354.53,320.71 7345.95,329.14 
	7338.46,333.67 7333.3,335.69 7325.34,335.69 7320.34,334.28 7314.1,331.33 7306.46,330.38 7303.02,331.48 7301.46,333.04 
	7300.36,335.85 7300.99,348.33 7302.86,356.61 7307.24,365.04 7311.76,371.75 7314.56,374.57 7319.41,378.47 7329.39,384.71 
	7335.64,391.26 7340.17,394.54 7344.7,400.01 7348.6,406.57 7349.22,414.21 7348.75,419.36 7348.44,421.55 7346.88,423.89 
	7344.39,426.08 7342.2,429.04 7340.48,434.35 7339.39,441.52 7340.63,446.36 7337.51,455.73 7336.27,464.79 7337.68,471.5 
	7339.54,474.77 7350,484.6 7355,491.01 7356.56,494.28 7359.37,495.53 7359.21,494.28 7360.15,495.06 7361.09,499.13 
	7358.27,508.02 7355.93,510.21 7352.81,511.62 7349.69,512.08 7345.78,512.08 7335.33,508.96 7328.31,504.74 7325.49,502.4 
	7319.41,495.06 7314.73,491.01 7308.64,487.73 7306.61,487.26 7303.8,486.94 7299.12,487.73 7293.49,491.32 7292.25,494.45 
	7291.15,495.23 7291,494.13 7282.88,509.11 7282.56,526.75 7283.35,530.35 7281,540.33 7275.08,550.64 7272.58,553.6 7259,564.69 
	7246.66,573.27 7243.54,573.89 7238.39,573.43 7227.63,568.59 7222.32,563.28 7212.02,555.48 7210.61,551.26 7211.7,544.4 
	7219.98,534.87 7217.95,535.81 7219.04,533.31 7223.88,527.38 7227,525.19 7233.09,516.92 7233.87,515.67 7234.96,510.84 
	7232.46,501.77 7226.69,493.35 7220.91,483.36 7214.98,469.62 7206.86,457.76 7200.46,446.52 7192.34,440.43 7183.61,437.77 
	7176.73,439.18 7175.49,440.28 7163.93,443.09 7160.81,442.94 7157.38,441.21 7156.6,439.65 7155.19,431.54 7153.79,427.32 
	7150.98,421.4 7145.2,412.18 7142.08,408.59 7135.37,403.44 7132.25,402.35 7126.63,402.19 7122.88,402.35 7117.27,403.75 
	7113.68,404.84 7106.81,408.43 7104.46,411.87 7102.27,417.33 7099.47,433.57 7096.82,441.21 7094.95,444.65 7080.73,455.73 
	7071.07,461.04 7061.38,468.84 7059.36,473.06 7057.95,481.48 7053.27,491.94 7046.87,502.87 7045.62,508.96 7046.09,514.74 
	7045.31,517.86 7044.68,518.48 7045.78,513.48 7045.15,513.33 7044.05,520.2 7031.56,543.45 7031.1,546.74 7030.63,547.36 
	7030.48,546.26 7029.22,548.14 7025.48,550.48 7024.24,553.91 7025.48,554.07 7023.29,555.16 "/>
<polyline class="st1" points="7023.29,555.16 7021.58,555.16 7019.39,558.75 7018.3,574.52 7022.36,584.35 7024.85,595.91 
	7023.61,611.52 7021.42,624.16 7018.93,628.84 7009.56,640.7 7005.81,644.45 6990.83,652.57 6981.78,655.23 6976.47,661.77 
	6964.44,671.92 6959.61,678.48 6956.34,689.09 6957.27,699.55 6958.98,705.18 6961.95,709.54 6968.04,713.28 6970.54,714.06 
	6975.85,717.97 6978.34,720.77 6981.46,726.71 6984.27,739.35 6987.71,743.57 6989.58,748.25 6991.14,760.58 6990.05,759.65 
	6986.61,752.31 6985.99,749.35 6985.83,743.41 6984.58,742.63 6983.65,744.35 6984.43,750.13 6986.77,756.52 6993.64,767.77 
	6995.66,774.48 6995.83,778.06 6994.1,786.81 6990.83,797.42 6990.05,802.89 6990.05,808.35 6993.32,817.09 6995.2,823.65 
	6995.98,831.76 7002.54,843.62 7009.56,866.26 7010.49,877.81 7009.71,882.65 7009.88,884.99 7008.46,888.89 7008.31,891.08 
	7006.75,894.82 7003.63,899.67 6997.07,905.44 6992.7,907.79 6982.56,909.97 6974.29,910.59 6972.41,910.13 6968.04,911.21 
	6962.88,908.57 6958.36,908.09 6949.31,905.6 6945.41,906.06 6944,905.13 6946.03,904.5 6945.71,904.19 6936.51,904.35 
	6931.36,905.28 6930.42,906.69 6928.86,906.22 6923.24,908.87 6920.12,911.69 6916.83,916.06 6915.9,918.08 6909.81,923.86 
	6907.47,927.14 6904.66,932.6 6904.82,934.01 6906.38,932.6 6904.51,935.72 6905.91,953.52 6904.98,974.59 6899.36,992.38 
	6898.73,998.62 6900.29,1013.77 6899.66,1022.98 6898.1,1029.53 6894.83,1038.28 6892.64,1055.6 6889.52,1067.31 6884.83,1077.45 
	6879.37,1083.08 6870.32,1087.6 6848.93,1091.67 6833.95,1096.5 6829.9,1096.5 6826.78,1097.28 6813.04,1092.28 6789.93,1103.21 
	6775.88,1108.36 6764.8,1111.48 6741.08,1120.23 6722.66,1129.43 6702.68,1136.93 6693.93,1138.96 6683.95,1139.89 6678.64,1139.74 
	6669.43,1137.86 6660.53,1134.74 6650.23,1127.57 6645.08,1120.54 6641.95,1115.08 6637.9,1103.06 6633.83,1080.42 6634.15,1078.08 
	6627.44,1064.81 6624.17,1061.53 6619.95,1058.72 6614.8,1056.07 6602.31,1051.23 6587.95,1041.55 6584.2,1037.81 6577.34,1029.23 
	6566.71,1017.52 6552.83,994.89 6545.65,987.23 6530.51,979.27 6527.85,976.62 6524.42,975.37 6523.02,973.35 6520.51,971.62 
	6515.05,970.06 6507.25,970.69 6483.52,970.06 6471.66,972.25 6464.32,972.09 6457.14,970.06 6444.66,964.45 6434.66,958.35 
	6415.62,942.75 "/>
<polyline class="st1" points="6415.62,942.75 6412.19,938.69 6409.37,934.01 6405.17,923.7 6402.04,913.4 6398.44,892.96 
	6398.92,890.45 6398.61,881.4 6397.36,877.03 6398.29,877.5 6398.61,876.4 6395.17,860.33 6391.27,850.33 6385.18,840.5 
	6380.19,835.35 6377.37,827.08 6377.53,818.03 6379.88,805.07 6380.19,799.45 6381.44,796.01 6382.22,790.55 6382.06,781.03 
	6380.49,770.89 6376.29,762.14 6372.54,757.46 6370.98,758.08 6367.39,756.21 6367.85,754.96 6366.76,753.72 6363.64,752.62 
	6359.12,752.31 6355.68,753.09 6353.02,754.81 6350.83,754.81 6348.03,756.37 6345.69,756.52 6333.2,760.89 6317.9,768.38 
	6301.51,780.09 6291.68,788.84 6292.15,787.11 6284.81,790.4 6278.88,790.4 6271.7,788.06 6266.71,787.28 6255.78,787.11 
	6254.37,788.06 6255,786.5 6254.22,786.33 6252.66,788.37 6249.85,789.62 6247.04,788.99 6241.58,791.02 6239.24,792.74 
	6234.71,799.3 6229.71,813.03 6220.66,827.55 6210.98,835.82 6193.65,845.5 6177.27,850.5 6173.2,853.15 6168.99,857.36 
	6164.46,863.92 6160.56,871.88 6160.88,873.75 6159.93,875.94 6157.9,887.96 6155.73,893.74 6150.73,903.57 6144.17,911.52 
	6131.68,917.15 6117.79,918.08 6101.09,921.83 6091.25,922.92 6083.61,921.36 6072.52,915.43 6064.1,911.99 6057.69,911.06 
	6052.39,911.99 6047.54,914.18 6044.58,917.46 6038.65,918.55 6036.15,919.96 6033.03,923.86 6032.41,927.45 6018.67,943.99 
	6015.71,947.28 6010.09,949.45 6003.37,947.89 5996.66,944.15 5988.39,935.1 5986.36,928.23 5985.73,920.74 5983.71,911.69 
	5978.71,904.19 5967.32,895.3 5955.29,887.96 5953.27,887.65 5952.17,886.4 5946.87,883.43 5934.22,878.59 5926.58,877.03 
	5905.34,874.23 5904.1,873.75 5900.35,874.69 5895.2,873.75 5897.23,872.66 5894.73,872.19 5876.78,871.88 5870.85,871.25 
	5861.64,867.2 5859.3,867.67 5851.81,865.94 5848.05,862.98 5844,858.45 5834.79,849.87 5824.8,843.16 5813.56,838.16 
	5803.42,836.28 5795.3,837.23 5786.71,839.25 5767.36,846.43 5760.96,849.55 5755.65,850.96 5755.96,849.87 5755.34,850.03 
	5720.69,860.64 5711.17,866.42 5710.07,866.57 5707.73,868.76 5704.76,873.13 5703.68,873.44 5703.98,874.23 5701.64,877.5 
	5699.61,891.7 5699.46,898.57 5697.27,908.4 5694.93,915.59 5691.65,920.58 5688.85,923.08 5683.22,925.57 5677.14,926.52 "/>
<polyline class="st1" points="5677.14,926.52 5667.46,925.11 5659.81,922.61 5641.86,913.87 5641.86,914.33 5639.2,914.33 
	5636.86,912.47 5634.52,912.47 5631.24,910.28 5630.31,908.57 5627.65,907 5612.2,906.06 5601.58,904.5 5590.34,902.16 5588,901.38 
	5584.1,898.72 5581.44,895.6 5578.32,887.18 5571.93,860.01 5569.74,853.3 5567.71,850.33 5563.19,846.59 5553.82,842.69 
	5542.27,840.82 5535.09,838.63 5521.51,829.74 5517.44,824.11 5512.15,802.26 5508.08,794.14 5505.44,790.71 5503.56,789.62 
	5503.4,788.84 5500.12,786.03 5489.83,781.03 5485.76,779.79 5482.02,779.31 5474.83,776.97 5451.73,772.92 5447.83,773.23 
	5439.09,771.35 5437.53,770.26 5439.71,769.33 5439.71,768.7 5433.78,765.74 5423.48,758.24 5414.9,755.59 5407.25,754.5 
	5392.42,755.28 5383.99,759.33 5377.75,761.67 5368.38,763.86 5353.39,770.26 5334.51,775.89 5329.36,775.1 5310.47,776.82 
	5297.36,773.54 5291.27,772.76 5276.91,767.92 5274.41,766.21 5275.66,765.89 5253.18,756.99 5234.61,751.38 5196.52,745.75 
	5190.12,744.04 5183.41,740.76 5174.98,731.86 5172.02,727.5 5167.33,717.5 5166.24,712.97 5164.05,699.24 5163.27,686.91 
	5164.52,665.37 5163.43,651.79 5161.24,641.79 5155.93,633.21 5150.78,626.35 5140.17,608.23 5135.64,603.71 5130.02,595.75 
	5123.63,587.94 5119.1,583.89 5111.44,572.02 5105.36,559.53 5102.24,533.77 5100.21,526.75 5095.05,514.89 5086.78,503.18 
	5074.92,491.63 5066.02,485.7 5057.44,481.33 5044.48,476.65 5020.91,473.06 5017.79,473.99 5008.42,472.11 5007.02,472.9 
	5003.12,473.06 4990,467.28 4984.07,462.45 4987.98,465.25 4982.36,459.32 4979.86,448.7 4978.92,442.62 4978.76,430.13 
	4977.2,426.86 4977.68,420.45 4978.61,418.42 4975.96,409.37 4971.12,401.1 4966.9,395.79 4962.85,392.04 4957.85,389.23 
	4951.76,387.83 4944.27,388.45 4939.27,391.11 4935.22,394.08 4929.44,400.94 4924.29,410.62 4921.95,413.11 4917.12,417.33 
	4910.4,420.92 4901.81,422.96 4897.29,423.11 4882.3,415.46 4880.27,414.99 4873.88,415.46 4870.75,417.49 4868.1,420.77 
	4862.63,429.5 4855.46,435.6 4837.66,440.59 4837.81,441.21 4834.07,442.46 4829.54,445.43 4824.08,446.52 4813.31,446.52 
	4802.22,443.09 4786,426.54 4779.75,422.33 4771.78,419.83 4761.95,419.67 4755.08,417.33 4750.71,413.28 4739.47,396.72 
	4724.17,376.43 4717.31,371.13 4712,368.32 4701.23,365.2 4700.92,365.67 4700.29,365.2 4695.46,365.5 4692.17,366.45 
	4681.56,375.81 4666.88,399.54 4663.61,402.81 4658.31,405.62 4643.32,410.31 4642.07,412.65 4640.83,413.28 4635.2,414.67 "/>
<path class="st1" d="M4635.2,414.67l-5.46,1.56l-4.21,2.66l-13.12,13.58l-2.81,2.34l-9.68,11.71l-7.18,4.05l-2.82,1.09l-14.67,8.9
	l-5.46,6.24l-1.88,5.46l0.47,4.22l2.5,3.27l5.77,11.24l4.84,6.08l8.9,6.87l5.15,5.62l14.98,20.92l2.97,6.71l8.42,9.21l4.68,9.37
	l3.29,9.37l0.31,4.37l-1.72,7.34l-1.88,4.68l-5.15,5.15l-2.18,3.12l-5.63,4.05l-6.24,8.9l-7.96,7.49l-4.53,5.78l-5.3,8.9l-1.88,6.24
	l0.62,3.44l1.56,4.52l3.6,4.85l2.34,4.22l2.65,2.03l6.24,1.56l26.85-0.31l11.56,2.19l4.22-0.16l9.37,3.28l6.55,4.52l1.72,0.63
	l5.62,5.15l1.71,3.12l0.63,5.31l-0.93,6.55l-2.04,5.94l-2.34,4.37l-2.34,3.27l-1.87,0.78l-3.12,2.97l-3.28,4.52l-9.37,6.41
	l-8.11,7.03l-3.6,4.99l-2.03,4.85v5.46l2.03,6.24l10.62,16.86l2.34,5.78l2.34,8.42l-0.63,6.56l-1.88,2.81l-4.84,1.56l-4.06,0.31
	l-9.83-1.09l-10.93-4.05l-8.12-2.34l-17.32-1.88l-9.83-2.49l-5.93,1.25l-6.87,3.75l-11.71,7.64l-5.31,2.03l-10.3,5.78l-8.59,2.66
	l-4.53,0.15l-13.27-2.81l-14.51-1.09l-5.15,0.31l-7.65,1.72l-5.93,3.59l-10.3,9.36l-16.24,9.05l-4.05,1.41l-5.31,3.12l-9.2,6.86
	l-0.63,1.56l-4.05,1.25l-5.46,3.44l-7.97,2.97l-3.9,2.49l-5.15,4.68l-12.64,7.8l-2.66,2.19l-1.1,0.15l-2.19,1.72l-3.12,4.21
	l0.16,0.94l-16.54,14.2l-6.41,7.34l-4.83,3.75l-7.34,4.37l-8.12,3.74l-14.83,5.16l-3.74-0.48l-10.93,1.26l-2.5-1.41l0.78-0.31
	l-0.15-0.31l-5-0.47l-6.71-1.88l-7.97-4.21l-7.02-6.09l-2.49-3.44l-2.03-1.56l-6.71-10.15l0.78-0.31l-0.16-0.47l-2.49-2.18
	l-0.47-1.26l0.78-0.15l-2.19-3.59l-4.53-5.31l-3.59-6.08l-11.39-6.72l-7.8-2.34l-10.3-1.71l-8.9-0.78l-3.12,0.31l-0.31,0.47
	l-11.55,0.47l-25.76,6.87l-1.08,0.62l-0.16,0.48l0.63,0.3l-1.72,0.78l-1.86-0.3l-10.62,3.27l-10.61,1.56l-7.02,0.15l-4.05-0.62
	l-21.7-5.15l-9.37-1.09l-4.99,0.93l-5.46,2.19l-1.88,1.71l-8.12,4.22l-2.19,2.03l-6.4,11.39l-5.46,6.72l-1.56,2.96l-3.27,15.61
	l-0.78,7.34l1.56,8.12l9.67,13.42l4.38,10.46l1.25,1.71l0.15,4.68l1.1,6.24l-0.78,4.06l0.15,8.74l-0.78,6.87l0.63,24.98l0.78,5.61
	l2.19,8.12l15.13,27.78l3.44,9.83l0.93,10.77v10.3l-1.56,6.41l-3.11,7.18l-4.22,6.56l-2.03,2.03l-7.97,5.93l-22.47,10.93l-8.43,7.34
	l-1.88,2.66l-2.96,6.56l-2.82,9.83 M4635.2,414.67l-4.83-227.12l-0.78-145.79l-0.47-22.63"/>
<polyline class="st1" points="4061.4,1126.47 4060.78,1129.28 4054.69,1140.21 4049.85,1147.08 4045.95,1151.13 4029.87,1159.25 
	4012.39,1165.5 3997.56,1168.15 3977.88,1169.24 3966.81,1172.52 3952.6,1182.35 3949.17,1185.47 3942.61,1197.33 3937.93,1204.05 
	3938.08,1205.77 3937,1210.92 3929.49,1228.55 3927.31,1235.42 3922.95,1252.91 3922.63,1256.96 3923.25,1269.14 3922.63,1274.45 
	3919.2,1283.35 3917.48,1292.71 3909.98,1313.62 3906.24,1319.09 3905.78,1321.11 3895,1334.7 3891.25,1343.28 3883.61,1349.99 
	3834.59,1380.28 3829.13,1382.94 3823.66,1382.16 3815.86,1377.01 3814.61,1377.01 3809.61,1371.23 3810.09,1368.11 3803.37,1361.7 
	3799.95,1361.23 3796.51,1359.21 3786.98,1359.21 3783.08,1361.4 3777.15,1363.42 3765.13,1365.76 3758.27,1368.57 3753.27,1372.94 
	3748.58,1382.94 3745.78,1395.11 3745.93,1402.13 3744.68,1415.25 3741.71,1422.11 3734.39,1434.13 3719.08,1447.09 
	3708.78,1456.92 3695.98,1474.09 3693.32,1478.93 3683.81,1505.31 3683.34,1529.19 3687.71,1562.13 3688.34,1574.46 
	3687.08,1590.38 3681,1605.06 3678.03,1615.2 3676.15,1630.5 3675.69,1641.89 3674.12,1652.04 3673.19,1655.94 3671.17,1661.09 
	3666.32,1667.81 3658.05,1676.23 3647.44,1682.48 3641.34,1683.72 3625.42,1685.13 3606.85,1689.19 3595.61,1691.06 
	3585.31,1693.87 3577.35,1697.94 3574.69,1700.89 3572.51,1706.99 3572.36,1711.04 3574.22,1723.38 3573.29,1729.93 
	3570.02,1735.86 3565.49,1737.58 3560.8,1736.02 3558.61,1734.15 3551.29,1725.87 3547.54,1720.72 3540.83,1707.77 3534.42,1693.4 
	3534.73,1692.94 3537.39,1695.43 3536.14,1693.57 3533.02,1689.97 3530.36,1688.1 3517.56,1680.14 3506.49,1675.14 3497.43,1673.11 
	3489,1672.33 3476.83,1672.96 3453.25,1679.67 3448.88,1679.52 3442.8,1678.11 3432.02,1672.33 3418.13,1666.4 3405.34,1659.53 
	3400.66,1653.45 3395.34,1649.7 3393.15,1647.35 3393.93,1646.74 3378.64,1639.4 3368.34,1631.59 3363.34,1626.6 3360.22,1621.76 
	3357.25,1615.04 3353.04,1596.62 3352.42,1579.77 3354.44,1565.09 3356.95,1554.64 3358.98,1541.06 3358.19,1534.97 
	3355.85,1530.91 3348.67,1519.83 3347.42,1518.58 3343.68,1512.03 3342.42,1510.93 3331.34,1502.97 3316.2,1495.16 3299.97,1480.5 
	3294.04,1474.25 3289.04,1470.19 3282.02,1466.76 3278.12,1466.45 3274.83,1466.91 3268.75,1470.03 3265.17,1473.94 
	3263.44,1477.99 3262.2,1483.46 3262.04,1487.36 3262.82,1495.94 3264.54,1500.62 3268.44,1504.84 3273.75,1507.96 3277.18,1509.06 
	3295.91,1511.25 3303.56,1513.74 3309.49,1516.55 3312.3,1520.14 3313.54,1525.45 3311.83,1533.87 3310.42,1536.53 3307.46,1541.06 
	3305.27,1542.93 3301.37,1545.11 3298.73,1545.89 3293.57,1546.52 3285.92,1546.21 3265.32,1543.86 3261.26,1545.43 
	3254.71,1550.74 3250.8,1558.23 3248.46,1567.28 3246.74,1569.94 3244.56,1571.65 3241.9,1572.59 3238.78,1572.28 3228.32,1560.57 
	3228,1559.63 3226.92,1559.32 3216,1549.96 3213.18,1548.7 3204.75,1547.62 3198.51,1548.08 3191.95,1551.21 3186.49,1557.29 
	3184,1562.75 3183.37,1565.87 3183.83,1571.5 3186.02,1577.74 3190.54,1583.2 3197.73,1587.42 3206.63,1590.07 3212.87,1593.97 
	3215.05,1597.09 3216.46,1603.18 3215.05,1613.18 3214.12,1616.3 3209.27,1623.94 3196.79,1635.33 3190.24,1638.15 3183.68,1639.86 
	3171.51,1641.11 3153.86,1640.96 3143.41,1642.52 3138.41,1644.55 3136.54,1646.11 3134.35,1649.54 3131.54,1661.4 3132.17,1671.86 
	3131.07,1684.98 3130.92,1694.96 3131.23,1703.71 3132.01,1707.92 3131.54,1710.74 3131.7,1729.15 3132.95,1736.02 3136.07,1744.76 
	3137.78,1747.89 3143.25,1753.35 3146.05,1758.35 3148.25,1765.21 3148.4,1772.7 3146.68,1775.2 3143.71,1777.69 3133.1,1783.79 
	3123.9,1787.38 3118.12,1787.53 3111.1,1786.59 3106.41,1784.72 3095.02,1781.76 3089.4,1782.06 3082.84,1780.67 3076.75,1781.6 
	3074.88,1783.01 3068.17,1790.81 3066.14,1794.55 3064.89,1799.4 3064.73,1805.64 3066.45,1824.52 3065.36,1835.77 3067.39,1840.91 
	3066.61,1844.04 3060.83,1854.5 3055.37,1858.55 3034.92,1870.72 3030.54,1872.29 3021.81,1873.69 "/>
<polyline class="st1" points="3021.81,1873.69 3017.75,1873.54 3012.6,1870.72 3009.48,1864.33 3008.7,1856.21 3009.79,1849.5 
	3012.44,1841.38 3020.88,1823.11 3024.46,1813.13 3025.09,1809.23 3024.93,1804.55 3023.68,1799.7 3022.27,1797.36 3019.63,1795.18 
	3009.95,1792.37 2998.86,1790.35 2991.83,1790.18 2987.31,1792.37 2984.34,1795.96 2977,1800.96 2967.64,1809.23 2960.15,1814.06 
	2958.12,1815.16 2954.69,1815.79 2946.42,1813.91 2943.45,1811.26 2932.83,1798.62 2928.78,1792.84 2923.78,1783.16 
	2915.98,1770.52 2911.14,1761.15 2908.02,1753.35 2904.9,1749.76 2903.49,1746.79 2902.56,1743.35 2902.71,1742.89 2903.64,1744.14 
	2904.12,1743.52 2902.56,1739.45 2900.22,1736.8 2895.83,1729.31 2894.9,1723.38 2893.03,1716.98 2889.75,1708.23 2888.51,1706.67 
	2888.97,1706.2 2881.32,1702.45 2875.86,1698.09 2872.12,1695.91 2867.9,1694.81 2865.4,1694.81 2861.97,1695.91 2852.76,1701.06 
	2837.15,1706.83 2830.27,1711.35 2825.29,1716.35 2821.85,1721.35 2816.54,1726.96 2812.64,1729.31 2807.34,1735.23 
	2803.44,1742.11 2796.1,1750.06 2792.35,1755.22 2788.13,1758.81 2784.07,1760.84 2777.2,1766.15 2769.56,1768.02 2765.19,1767.86 
	2754.42,1769.74 2736.31,1770.98 2733.81,1770.52 2734.59,1769.74 2726.63,1772.23 2701.66,1782.38 2695.26,1785.5 2674.49,1800.33 
	2666.54,1809.69 2663.26,1817.03 2663.26,1821.87 2664.82,1825.93 2665.76,1833.42 2665.13,1840.91 2660.14,1853.55 2657.8,1861.52 
	2658.27,1862.14 2652.49,1890.24 2649.37,1897.26 2645.62,1909.44 2642.34,1916.77 2639.07,1921.3 2634.85,1925.67 2622.83,1935.2 
	2614.4,1938.79 2602.54,1941.28 2597.07,1940.81 2589.58,1938.32 2587.71,1936.6 2584.44,1930.2 2580.53,1913.03 2576.63,1902.89 
	2565.23,1883.21 2561.32,1878.22 2556.64,1874.79 2556.8,1874.01 2556.02,1874.47 2550.56,1873.23 2547.75,1873.85 2544.63,1873.38 
	2544.78,1873.85 2541.35,1874.47 2539.17,1874.32 2530.42,1872.29 2520.44,1871.04 2507.17,1866.2 2474.7,1844.67 2466.58,1837.16 
	2466.12,1835.77 2461.12,1829.99 2456.59,1826.08 2453.78,1824.68 2443,1816.57 2431.93,1808.76 2423.97,1805.16 2416.47,1800.8 
	2405.86,1797.84 2403.68,1797.99 2402.58,1798.62 2394,1794.55 2386.81,1788.62 2385.56,1786.59 2381.98,1783.79 2379.01,1783.32 
	2377.29,1781.76 2369.49,1773.01 2369.34,1770.67 2362.31,1766.62 2347.64,1761.31 2345.29,1761.15 2343.27,1760.37 
	2342.17,1758.96 2332.02,1756.47 2328.12,1756.94 2327.81,1756.01 2310.64,1756.62 2301.59,1758.65 2298.93,1759.74 
	2298.62,1760.53 2287.39,1766.62 2281.29,1772.55 2276.93,1775.35 2266.78,1783.62 2263.03,1787.69 2253.35,1796.11 
	2250.07,1798.14 2247.1,1799.08 2243.98,1799.23 2236.18,1792.06 2226.03,1787.84 2208.71,1777.69 2199.66,1769.27 2192.79,1759.13 
	2189.83,1752.25 2187.8,1743.82 2188.73,1734.93 2187.49,1729.15 2184.68,1724.94 2181.86,1722.75 2177.49,1720.41 2174.05,1719.63 
	2167.81,1721.04 2163.6,1723.53 2161.42,1727.74 2160.01,1731.96 2160.01,1736.18 2161.57,1738.99 2159.07,1749.6 2154.86,1755.22 
	2141.44,1767.86 2138.47,1775.52 2138.93,1781.45 2140.81,1787.53 2143.46,1793.62 2146.12,1797.99 2151.42,1803.3 2156.58,1807.35 
	2162.51,1810.94 2168.75,1816.57 "/>
<path class="st1" d="M760.47,2828.84l3.44-1.09l3.44-0.15l6.24,2.03l2.96,1.71l4.85,4.38l5.93,7.96l2.81,5.93l0.47,3.59l0.16,4.06
	l-2.19,15.76l-8.43,27l-8.27,37l-2.18,5.15l-6.56,12.02l-5.15,16.54l-5.78,11.24l-13.58,0.31l-4.83,4.37l-1.41,0.47l-6.71-0.15
	l-3.28,1.1l-2.81,1.88l-2.96,3.59l-2.04,4.52l-0.3,18.11l-0.78,3.12l0.47,4.52l1.09,2.97l5.61,10.46l2.34,2.96l6.87,5.46l4.37,2.19
	l24.66,2.19l5.46,3.27l2.19,3.27l3.74,10l-1.25,9.68l-2.97,7.96l-2.03,3.28l-3.44,3.43l-8.11-0.3l-5.63-3.75l-4.37-1.09l-9.99-0.31
	l-9.52-4.37l-3.9,0.78l-10.15,4.37l-6.56,6.41l-6.86,9.2l-2.82,7.5l-1.4,9.52l0.15,6.4l1.88,6.41l14.51,17.95l5.93,5.15l5.94,7.64
	l0.78,2.97v8.27l-1.56,4.06l-2.19,2.34l2.81,0.78l8.75,6.4l-5.31,7.02l-9.52,10.77l-12.18,10.3l-4.52,5.78l-4.85,7.96l-1.4,3.59
	l-1.88,8.59l-1.88,18.73l-10.61,24.2l-3.75,4.38l-9.2,7.49l-8.59,2.81l-21.54,1.41l-7.19-4.53l-3.27-2.97l-6.56-7.18l-13.9-18.58
	l-6.08-12.01l-10.46-18.43l-4.22-5.77l-7.64-8.28l-6.71-0.15l-8.9,1.09l-11.71,2.66l-8.43,3.59l-5.15,4.68l-4.22,5.78l-0.78,2.03
	l-1.71,6.56l-2.81,18.73l-2.19,9.05l-12.8,26.85l-2.96,19.66l-6.87,15.93l-11.39,32.78 M2168.75,1816.57l2.96,4.05l-0.47,4.22
	l2.34,9.2l0.94,7.5l-0.31,8.89l-2.66,5l-3.27,4.37l-2.51,5.94l-2.18,2.03l-5.78,7.96l-7.97,7.49l-8.58,3.28l-9.83,2.34l-10.61,1.25
	l-9.05-0.63l-10.78-2.03l-2.49-1.25l-5.31-7.02l-2.03-6.09l-0.15-4.2l-0.94-2.5l0.63-6.56l-0.31-4.2l1.09-2.66l2.34-2.97l2.34-5.78
	l8.27-9.2l1.88-3.44l1.25-4.83v-4.68l-1.88-9.06l-1.09-2.03l-4.21-4.37l-4.22-3.12l-4.22-1.56h-4.68l-3.9,1.41l-6.87,4.21
	l-12.79,5.16l-5.78,1.08l-5,0.48l-8.74-2.65l-4.68-0.32l-18.27,3.12l-3.12,0.93l-7.97,5.16l-11.39,9.67l-2.49,1.26l-4.06,0.93
	l-15.45,0.47l-20.29-1.71l-2.97-0.94l-6.56-5.77l-0.47-6.09l-3.43-6.24l-10.46-8.58l-5.15-12.8l-2.19-3.59l-8.43-8.9l-4.52-2.96
	l-11.09-2.97h-2.81l-4.22,1.09l-4.05,2.19l-3.44,3.59l-12.49,16.08l-4.52,6.86l-5.63,5.63l-4.52,6.24l-2.19,6.08l-0.31,6.72
	l1.25,7.02l2.82,6.24l7.96,10.61l11.08,10.46l4.06,7.02l0.15,4.37l2.03,2.18l0.94,8.75l2.49,13.89l-0.78,5.94l-2.49,6.08
	l-10.77,5.63l-9.98,3.59l-3.6,2.81l-0.62,1.25l0.15,3.9l-1.1,2.5l-2.49,1.87l-0.93,3.6l-4.53,10.76l-3.75,3.29l-3.59,0.62
	l-6.71-1.71l-9.21-9.83l-1.25-3.29l-4.05-3.74l-7.19-4.53l-2.49-0.47l-3.59-2.03l-1.72-2.04l-3.59-2.18l-6.86-2.97l-9.37-2.03
	l-5.31,0.47l-6.4,2.5"/>
<path class="st1" d="M7607.87,2458.27l-64.31,7.18l-0.31-1.09l-2.81-1.09l-1.71-2.18l-0.78-6.87l-2.19,0.16l-1.09-1.88l-7.02,0.31
	l-1.56-2.34l0.16-1.72l-2.65-1.25 M487.14,3371.74l-2.5,5.78l-9.05,13.57l-7.02,8.28l-11.08,11.08l-4.37,3.44l-6.87,3.44l-3.44,0.93
	h-6.86l-4.38-1.09l-8.89-4.52l-3.9-4.53l-2.19-5.31l-0.78-6.55l0.78-3.12l8.27-21.39l2.5-5l4.99-5.46l4.53-7.49l3.75-8.43l2.81-9.83
	l0.47-7.02l-1.71-12.17l-4.85-14.99l-5-9.52l-5.15-4.37l-13.73-5.46l-13.27-2.03l-3.75-1.09l-3.27-1.72l-4.83-1.25l-13.58,0.31
	l-3.44,0.47l-6.09,3.12l-5.15,4.06l-4.68,5.3l-3.59,5l-2.81,6.87l-1.88,6.24l0.15,5.93l0.94,3.44l2.34,4.37l6.08,17.32l5.31,9.83
	l9.99,13.9l3.27,7.8l4.05,7.8l10.62,11.86l1.71,2.97l0.93,3.75l-0.47,9.52l-1.25,5.78l-4.05,8.9l-2.04,2.81l-12.79,10.93l-2.34,3.12
	l-1.72,4.37l-0.31,8.9l2.34,7.96l15.14,22.79l9.99,17.95l2.96,7.5l0.48,5.46l-3.44,15.45l-5.78,12.65l-3.44,4.21l-4.22,3.44
	l-4.37,2.66l-5.78,1.88l-6.4,0.62l-14.2-1.4l-19.36-5.78l-17.32-1.25l-4.85,0.78l-4.68,1.88l-4.84,4.83l-3.75,7.34l-0.62,7.49
	l7.34,15.92l19.82,14.51l5,4.05l5.15,5.94l22.02,12.64l4.68-1.09l2.49-1.88h1.56l4.83,3.75l1.56,2.34l1.88,5.46l0.63,9.99
	l-0.47,10.45l-4.22,4.22l-5.15,1.25l-3.9-0.78l-4.07-2.65l-4.05-0.78h-3.9l-2.66,0.93l-8.43,6.71l-4.68,2.34l-9.83,2.66l-11.86,0.93
	l-7.96-1.56l-12.18-4.99l-11.23-5.63l-8.28-2.49l-6.08-0.94l-23.58,2.04l-7.49-1.56l-4.52-2.97l-3.6-0.93l-3.12,2.34l-6.55,12.01
	l-0.16,3.75l0.78,1.25l10.46,12.34l11.86,10.61l22.17,17.01l16.24,14.68l11.86,7.03l5,3.75l10.15,10.15l1.71,2.49"/>
<polyline class="st1" points="7523.58,2447.5 7523.12,2445.62 7521.86,2445.62 7521.56,2444.53 7519.83,2444.84 7518.74,2443.75 
	7518.74,2442.04 7516.56,2440.94 7515.15,2441.57 7514.22,2439.69 7512.97,2439.85 7511.25,2437.35 7507.66,2436.42 
	7506.88,2430.01 7504.69,2428.77 7503.44,2425.49 7501.1,2425.49 7500.17,2423.46 7497.36,2423.46 7495.17,2424.55 7494.39,2424.08 
	7492.98,2424.24 7491.12,2426.58 7488.3,2426.11 7484.87,2427.36 7484.09,2425.8 7483.78,2422.99 7481.27,2422.37 7480.65,2421.28 
	7481.44,2414.09 7483,2408.47 7481.12,2407.85 7480.34,2405.35 7478.78,2404.42 7477.85,2398.33 7476.29,2397.55 7474.1,2397.86 
	7470.35,2394.43 7468.79,2394.43 7467.07,2393.18 7466.61,2389.74 7466.92,2384.59 7465.51,2384.59 7464.58,2385.84 
	7462.39,2385.21 7461.61,2385.99 7457.39,2387.25 7456.15,2388.5 7453.34,2387.4 7452.56,2387.87 7451.78,2386.94 7448.81,2386.31 
	7448.19,2385.06 7446.78,2384.28 7446.46,2381.31 7444.44,2380.53 7443.66,2378.82 7441.32,2378.97 7440.85,2377.88 
	7439.44,2377.88 7439.44,2377.25 7437.26,2376.79 7436.48,2377.25 7435.07,2380.06 7433.98,2380.69 7433.36,2376.48 
	7432.27,2376.79 7429.14,2376.32 7428.52,2377.1 7426.8,2375.85 7426.02,2376.63 7424.77,2375.85 7423.05,2375.85 7421.02,2379.13 
	7417.75,2379.6 7415.88,2380.69 7415.71,2381.79 7413.53,2382.25 7412.59,2383.35 7411.19,2383.19 7408.69,2384.13 7407.13,2383.65 
	7404.48,2384.59 7403.85,2382.87 7402.44,2382.87 7401.83,2382.09 7399.48,2382.87 7398.71,2381.94 7396.36,2382.09 
	7397.14,2378.82 7396.2,2377.88 7394.64,2378.04 7392.15,2377.1 7389.18,2378.5 7388.71,2378.04 7386.53,2378.82 7385.44,2378.5 
	7384.97,2379.44 7383.1,2378.67 7382.31,2378.97 7381.69,2378.35 7381.69,2376.32 7378.56,2376.32 7377.78,2371.48 7378.25,2368.2 
	7379.19,2366.02 7378.56,2364.45 7376.85,2364.62 7376.54,2362.74 7377.78,2361.33 7376.69,2358.37 7376.69,2354.77 
	7375.13,2354.77 7372.02,2357.11 7371.39,2356.5 7369.83,2356.33 7366.24,2352.13 7367.95,2348.84 7371.24,2346.67 7370.61,2344.48 
	7369.2,2344.32 7365.61,2340.42 7364.36,2340.26 7364.21,2339.33 7361.87,2339.79 7360.46,2337.77 7359.37,2337.77 7358.75,2337.14 
	7359.21,2335.74 7357.65,2332.93 7357.65,2331.84 7356.71,2331.37 7355.46,2332.3 7353.59,2330.74 7354.06,2327.31 7352.19,2327.15 
	7350.31,2329.18 7348.91,2329.5 7347.35,2328.87 7346.1,2329.18 7343.92,2327.93 7341.73,2328.08 7339.54,2330.11 7338.29,2327.62 
	7336.9,2328.08 7335.64,2326.69 7335.49,2326.21 7336.58,2325.28 7336.58,2324.18 7334.71,2319.81 7333.46,2319.5 7333.46,2317.16 
	7332.68,2316.69 7330.65,2317.16 7329.39,2315.6 7326.59,2316.38 7325.81,2315.13 7325.02,2314.98 7325.65,2313.57 7324.09,2313.26 
	7323.93,2310.3 7323.31,2309.35 7319.41,2308.89 7316.6,2309.52 7316.6,2307.48 7315.51,2305.3 7313.95,2304.83 7313.32,2302.18 
	7312.39,2300.77 7310.51,2299.52 7309.1,2300.93 7307.39,2297.96 7306.14,2297.18 7306.92,2292.96 7308.02,2291.25 7304.58,2290.47 
	7301.15,2287.35 7301.3,2284.23 7300.36,2282.98 7300.83,2282.04 7302.24,2281.26 7302.71,2279.86 7301.77,2278.3 7298.34,2276.89 
	7297.4,2274.55 7298.17,2271.74 7301.46,2268.93 7301.46,2266.89 7299.58,2264.87 "/>
<polyline class="st1" points="7299.58,2264.87 7299.27,2263.15 7300.36,2261.43 7302.86,2260.35 7303.8,2259.25 7303.17,2258.31 
	7303.49,2257.22 7302.39,2255.5 7304.42,2253.47 7303.33,2251.6 7302.24,2251.45 7301.46,2250.5 7301.92,2246.3 7304.27,2244.42 
	7307.07,2243.64 7306.61,2240.67 7307.7,2240.05 7308.02,2238.96 7305.2,2238.33 7303.02,2235.68 7299.12,2235.06 7297.24,2232.71 
	7296.46,2229.75 7293.97,2229.75 7293.97,2228.5 7292.87,2227.72 7293.34,2225.38 7290.85,2219.76 7293.19,2216.16 7295.22,2216.16 
	7293.65,2213.98 7293.97,2211.48 7295.37,2210.86 7294.9,2208.83 7291.78,2206.65 7289.29,2206.96 7288.81,2208.05 7285.54,2207.27 
	7285.22,2205.55 7283.82,2204.77 7282.1,2201.33 7277.58,2200.72 7274.29,2197.75 7273.36,2198.99 7269.46,2199.47 7266.49,2200.87 
	7264.93,2201.18 7262.75,2199.94 7262.59,2198.99 7264,2195.57 7260.25,2193.69 7259.46,2191.97 7259.93,2191.19 7259.46,2190.41 
	7258.22,2190.72 7256.97,2189.47 7253.38,2189.63 7249.17,2193.23 7247.29,2192.6 7246.36,2190.88 7246.36,2188.38 7244.64,2186.2 
	7242.14,2186.04 7240.73,2181.82 7241.05,2177.45 7238.56,2176.05 7237.93,2174.18 7238.71,2173.24 7237.3,2168.09 7240.27,2164.65 
	7240.12,2160.91 7241.2,2160.44 7241.83,2159.19 7246.51,2157.48 7248.22,2158.25 7251.35,2157.48 7252.44,2158.41 7254,2158.41 
	7254.94,2157.32 7255.41,2154.82 7259.93,2153.57 7259.78,2152.01 7263.05,2150.92 7263.37,2149.04 7264.78,2147.64 
	7271.95,2149.52 7275.08,2149.36 7276.02,2148.42 7275.85,2146.23 7274.29,2144.21 7274.29,2139.84 7275.08,2138.11 
	7276.17,2137.33 7278.66,2136.72 7281.63,2137.18 7283.35,2135.94 7282.88,2131.25 7283.82,2129.38 7285.38,2128.28 7286.31,2128.6 
	7288.19,2127.5 7290.85,2126.88 7293.65,2124.69 7297.24,2124.69 7298.49,2122.67 7297.4,2121.11 7294.59,2120.01 7291.63,2116.74 
	7290.69,2117.04 7288.97,2122.67 7287.41,2124.23 7284.6,2125.16 7282.73,2124.54 7281.95,2123.76 7281.17,2120.33 7282.41,2116.89 
	7282.41,2115.01 7280.07,2113.14 7278.66,2110.8 7278.51,2108.15 7281.63,2104.72 7281.48,2103.94 7279.6,2103.16 7273.05,2107.84 
	7270.24,2107.37 7269.15,2105.96 7269.61,2100.81 7269.15,2099.87 7267.43,2099.87 7260.09,2102.99 7258.37,2101.43 
	7259.15,2097.38 "/>
<polyline class="st1" points="7259.15,2097.38 7261.49,2093.48 7261.81,2091.29 7258.22,2088.16 7256.19,2087.7 7251.35,2089.11 
	7246.04,2093.48 7241.36,2092.54 7239.95,2093.01 7237.15,2098.01 7235.9,2098.94 7233.09,2097.84 7232.93,2093.16 7231.68,2092.85 
	7230.27,2093.48 7223.88,2103.94 7222.32,2104.55 7217.95,2104.4 7216.23,2103.62 7214.98,2098.94 7213.1,2096.75 7211.24,2096.91 
	7207.49,2099.57 7204.37,2100.5 7200,2096.6 7196.71,2095.04 7195.47,2090.35 7194.53,2089.26 7190.94,2088.94 7189.38,2090.98 
	7189.07,2093.48 7189.54,2096.6 7192.19,2103.31 7192.19,2105.33 7190.78,2111.11 7188.76,2112.06 7187.35,2111.27 7186.73,2105.65 
	7185.63,2104.25 7180.8,2102.69 7178.46,2102.69 7175.02,2103.94 7173.15,2103.77 7172.05,2103.16 7171.58,2100.65 7172.52,2097.38 
	7171.74,2094.41 7168.31,2089.72 7164.71,2087.38 7163.63,2083.79 7161.44,2082.08 7152.7,2083.02 7148.48,2082.55 7139.9,2085.98 
	7135.06,2086.45 7134.27,2085.04 7136.93,2080.06 7135.68,2078.5 7132.88,2078.65 7129.59,2080.06 7122.88,2080.06 7120.07,2082.86 
	7118.98,2087.7 7117.42,2089.42 7114.46,2089.57 7108.37,2087.55 7107.59,2086.45 7107.27,2083.18 7108.21,2079.27 7107.59,2077.55 
	7104.93,2075.21 7099.16,2073.96 7097.75,2072.72 7097.6,2071.16 7098.53,2068.65 7099.94,2068.03 7111.02,2066.31 7113.68,2064.6 
	7115.54,2061.01 7115.39,2059.3 7114.14,2058.04 7112.27,2049.45 7107.59,2041.81 7098.85,2040.4 7094.63,2043.52 7092.92,2045.55 
	7085.27,2043.84 7084.17,2039.31 7084.8,2034.32 7084.33,2032.13 7085.11,2029.94 7084.33,2025.11 7082.61,2024.79 7077.31,2026.82 
	7074.02,2026.52 7073.09,2024.95 7072.78,2021.36 7076.53,2015.28 7076.83,2013.09 7074.19,2011.37 7072,2011.21 7069.19,2013.87 
	7065.75,2015.89 7061.22,2011.99 7060.14,2009.65 7060.92,2006.38 7067.78,2001.06 7068.73,1999.35 7068.25,1997.79 
	7065.29,1994.04 7063.56,1990.61 7065.75,1983.59 7065.29,1982.03 7063.1,1980.94 7055.92,1981.4 7053.73,1982.96 7050.77,1986.86 
	7051.08,1988.43 7054.36,1993.26 7054.83,1994.98 7056.39,2003.72 7055.61,2006.38 7051.08,2008.25 7042.97,2006.06 
	7040.15,2008.57 7035.47,2009.5 7032.04,2009.35 7030,2008.57 7030.63,2007.01 7025.32,1999.98 7025.32,1999.04 7028.29,1992.96 
	7028.14,1991.4 7021.73,1988.11 7020.33,1985.3 7018.93,1978.43 7014.87,1976.25 7012.68,1976.09 7009.71,1971.72 7008,1971.26 
	7006.44,1969.54 7005.19,1969.23 7002.38,1970.32 6995.04,1975.31 6990.68,1975.79 6987.71,1974.38 6983.34,1970.79 
	6976.93,1968.76 6973.97,1963.45 6971,1961.57 6966.79,1955.18 6965.7,1955.02 6964.76,1955.96 6963.36,1961.89 6961.95,1964.08 
	6956.17,1961.89 6955.39,1952.99 6953.68,1953.3 6948.22,1956.43 "/>
<polyline class="st1" points="6948.22,1956.43 6946.81,1955.65 6947.12,1953.3 6952.9,1946.28 6953.68,1944.09 6953.52,1943.01 
	6948.68,1939.1 6947.12,1935.82 6947.9,1932.86 6951.96,1928.48 6952.43,1925.67 6948.22,1921.62 6944,1921.15 6942.44,1920.06 
	6940.88,1915.84 6939,1913.81 6937.76,1907.72 6933.54,1904.76 6933.07,1900.38 6931.51,1897.42 6931.2,1892.89 6930.42,1891.02 
	6929.64,1890.24 6923.08,1888.52 6917,1883.21 6916.53,1882.13 6917,1880.25 6921.21,1874.63 6927.14,1871.2 6927.29,1866.36 
	6928.39,1863.08 6930.1,1861.52 6935.42,1859.18 6936.19,1857.77 6935.26,1855.9 6934.17,1855.11 6929.8,1855.59 6921.21,1859.02 
	6917.78,1858.08 6915.12,1855.74 6914.97,1854.65 6917,1852.47 6923.86,1847.16 6924.49,1845.44 6923.71,1844.19 6921.83,1843.1 
	6918.09,1843.57 6915.75,1845.6 6911.69,1844.97 6909.97,1842.79 6910.29,1838.72 6908.73,1833.11 6907.95,1832.48 6900.29,1831.55 
	6895.14,1825.15 6893.42,1824.37 6888.74,1823.9 6886.4,1822.81 6882.49,1817.19 6880.47,1815.94 6876.1,1815.62 6873.76,1814.84 
	6871.26,1805.94 6867.83,1802.2 6865.8,1798.77 6864.54,1797.99 6863.46,1797.99 6862.2,1799.23 6856.59,1808.13 6854.09,1809.23 
	6851.75,1808.29 6850.81,1806.89 6850.81,1805.01 6853.62,1794.55 6852.06,1785.19 6843.32,1778.01 6840.04,1768.8 6839.1,1768.33 
	6835.2,1768.18 6832.39,1766.93 6836.44,1758.35 6837.07,1756.01 6828.96,1751.79 6828.17,1750.23 6828.17,1748.67 6830.83,1747.26 
	6840.98,1745.38 6843,1743.35 6841.6,1741.79 6836.61,1741.33 6833.64,1739.77 6832.08,1736.33 6831.61,1726.81 6830.52,1724.16 
	6828.8,1722.44 6822.41,1720.1 6819.44,1718.38 6814.44,1708.08 6804.76,1702.77 6801.17,1698.25 6793.53,1697.31 6790.41,1691.53 
	6789.15,1691.23 6785.73,1692.79 6785.1,1696.06 6785.88,1704.02 6785.56,1706.05 6783.69,1709.48 6782.6,1709.64 6780.73,1708.55 
	6779.32,1706.2 6780.56,1699.65 6779.17,1695.28 6775.58,1692.16 6768.08,1690.13 6767.3,1688.88 6767.77,1686.69 6773.54,1681.54 
	6774.02,1679.67 6770.73,1678.57 6760.12,1679.04 6757.93,1677.64 6754.51,1673.11 6754.03,1670.46 6755.44,1668.43 
	6757.93,1667.96 6763.71,1668.9 6764.96,1667.81 6765.58,1665.94 6764.96,1664.99 6761.22,1663.59 6758.25,1661.72 6757.63,1659.53 
	6757.93,1657.19 6759.97,1656.72 6766.21,1657.97 6768.56,1656.88 6772.14,1653.28 6778.22,1644.86 6780.1,1641.11 6779,1639.71 "/>
<path class="st1" d="M7607.87,3134.62l-80.7,4.06l-170.61,4.68l-9.21,25.59l-219.93,10.93l-34.03,0.31l-234.31,12.95l-19.04-0.62
	l-123.94,7.96l-107.39,5.15l-135.96,6.09l-330.92,13.11l-11.08,0.31l-14.21-4.37l-90.37,4.37l-166.71,6.24l-59.79,1.41l-21.69-1.56
	h-27.32 M7607.87,3162.25l-24.66,0.93l24.66-26.53 M6779,1639.71l-10.61-2.82l-0.47-1.08l0.15-7.02l1.41-1.88l2.34-1.09h7.18
	l3.12-0.78l3.28-5l-0.31-6.86l-2.34-2.04l-4.22-1.25l-9.83,3.75l-1.1-0.47l-1.88-5.46l-0.62-7.19l-1.25-2.49l-1.56-0.78h-9.84
	l-7.64-2.5l-1.41,0.48l-3.27,2.49l-2.97-0.47l-2.34-1.41l0.16-1.1l3.12-3.43l-0.16-2.04l-3.9-1.86l-2.81-5l-3.27-7.34l-0.48-7.8
	l-1.08-1.25l-3.12-1.25l-4.22-3.75l-3.59-5.61l-0.63-2.82l1.41-3.27v-2.97l-3.75-3.42l-2.66-4.07l-0.93-2.34l-0.47-5.61l-4.06-4.22
	l-0.78-7.18l-2.03-1.88l-6.87-1.71l-5.93-8.58l-7.64-1.26l-9.37-9.37l-1.56-4.05l-0.63-13.73l-1.56-2.34l-5.93-2.34l-4.85-6.24
	l-6.86-4.37l-1.72-0.31l-7.33,1.25l-2.5-0.31l-1.4-0.93l-0.78-2.03l-0.48-10l-0.93-1.56l-11.08-3.12l-2.82-2.34l-1.25-5.31
	l-1.25-14.98l-5.78-9.68l1.41-4.83l3.44-1.88l12.33,0.15l5.46,1.41l5.31-1.71l1.71-1.56l6.71-22.95l2.82-6.71l-0.31-21.7v-1.25
	l-0.94-1.1l-5.93-2.97l-2.96-2.65l-3.29-9.84l-0.31-4.21l4.06-11.4l1.56-1.56l9.37,1.56l7.96-0.47l1.88-0.93l2.19-3.59l2.49-6.24
	l2.66-10.46l-0.47-12.34l-4.21-7.96l-1.41-11.24l-2.96-4.05l-0.16-1.56l3.75-9.99l5.15-9.52l-0.47-4.68l-2.81-4.68l-1.88-7.19
	l-7.97-6.24l-2.49-4.99l-1.71-1.88l-6.24-2.66l-1.56-3.12l-0.78-13.9l0.3-7.96l2.82-8.12l0.78-5.61l-1.41-4.85l-5.15-8.42
	l-0.47-1.88l0.62-4.22l3.44-5l0.15-1.71l-3.12-12.8l0.63-7.49l2.03-4.83"/>
<polyline class="st1" points="5750.66,3231.25 5751.27,3228.75 5752.53,3226.88 5755.02,3226.57 5756.9,3225.16 5759.08,3225.48 
	5761.27,3224.06 5762.83,3221.72 5765.49,3219.54 5766.73,3217.2 5769.85,3216.26 5772.66,3212.05 5774.07,3212.36 5774.85,3207.52 
	5774.54,3205.65 5775.17,3205.03 5776.56,3205.33 5776.73,3204.25 5777.66,3203.62 5779.54,3204.09 5780.78,3203.16 
	5782.34,3202.84 5785,3203.62 5786.71,3204.87 5795.92,3202.06 5796.24,3201.13 5801.54,3197.53 5805.13,3191.6 5806.54,3190.67 
	5807.95,3190.67 5810.12,3188.33 5813.1,3187.08 5815.59,3188.01 5817.62,3187.7 5826.98,3183.79 5830.88,3179.74 5832.29,3182.23 
	5838.85,3181.62 5842.59,3178.02 5845.56,3176.93 5849.31,3173.65 5851.96,3170.21 5859.61,3167.09 5865.85,3166.16 5870.85,3163.5 
	5878.49,3157.26 5879.59,3153.67 5881.62,3152.26 5883.96,3152.42 5893.95,3150.23 5897.85,3148.37 5902.22,3148.67 
	5907.22,3148.05 5909.71,3146.33 5914.71,3146.33 5918.77,3149.15 5924.7,3150.7 5926.27,3150.7 5927.51,3150.08 5930.17,3151.02 
	5939.53,3151.79 5944.05,3151.64 5947.17,3150.4 5950.3,3151.33 5953.9,3150.4 5956.24,3150.55 5961.07,3148.05 5967.47,3149.15 
	5978.56,3147.27 5990.73,3142.43 5993.54,3140.25 6003.68,3135.72 6004.46,3134.79 6004,3132.6 6009.61,3127.76 6009.31,3126.2 
	6012.12,3124.18 6014.46,3124.18 6015.08,3123.55 6016.95,3123.39 6017.42,3121.67 6018.51,3122.14 6019.44,3120.58 6022.1,3119.33 
	6022.73,3119.8 6025.22,3119.49 6032.71,3114.18 6033.81,3114.03 6035.53,3115.43 6037.56,3114.81 6041.46,3111.69 6043.96,3110.74 
	6046.46,3106.84 6057.39,3104.35 6065.34,3100.6 6077.2,3096.54 6079.54,3094.67 6083.44,3093.26 6086.42,3093.42 6087.35,3092.48 
	6091.88,3091.4 6093.44,3090.3 6098.9,3090.45 6101.71,3089.52 6102.81,3088.11 6108.42,3087.33 6110.14,3085.45 6112.02,3084.67 
	6115.44,3084.67 6122.63,3080.77 6123.73,3080.93 6126.53,3079.52 6127.93,3080.15 6130.12,3079.52 6132,3077.96 6135.12,3077.03 
	6139.34,3074.53 6142.92,3074.53 6145.42,3072.97 6147.44,3073.13 6151.82,3070.62 6154.17,3070.62 6155.88,3069.06 
	6158.07,3069.06 6162.27,3067.5 6165.4,3065.16 6168.37,3064.86 6170.08,3063.6 6173.05,3063.14 6177.27,3060.48 6183.19,3058.77 
	6185.07,3057.21 6194.9,3056.27 6197.71,3056.89 6201.77,3056.11 6203.17,3056.58 6204.73,3055.64 6207.54,3055.64 6209.88,3054.86 
	6210.51,3055.49 6209.58,3056.89 6215.35,3055.64 6218.63,3053.77 6219.41,3052.67 6222.07,3052.99 6223.15,3051.74 
	6224.71,3053.15 "/>
<polyline class="st1" points="6224.71,3053.15 6230.17,3052.99 6237.05,3050.96 6239.24,3051.43 6240.8,3047.52 6240.02,3047.06 
	6239.24,3044.25 6241.58,3043 6243.6,3043.16 6243.92,3042.69 6245.48,3042.38 6245.48,3040.81 6244.54,3039.88 6245,3035.67 
	6244.39,3033.94 6244.7,3031.92 6245.78,3031.76 6246.26,3030.35 6247.35,3029.57 6240.8,3026.61 6240.95,3025.36 6241.88,3024.58 
	6241.88,3022.08 6243.44,3021.3 6243.76,3020.37 6243.29,3019.28 6240.64,3018.65 6240.64,3018.18 6241.58,3016.16 6242.98,3015.99 
	6243.92,3013.65 6240.02,3006.16 6239.7,3003.82 6242.2,3002.42 6243.44,3002.72 6247.82,3001.16 6250.16,2999.3 6251.88,2997.57 
	6255.93,2989.3 6259.53,2984.15 6260.93,2982.91 6263.12,2982.43 6265.3,2979.79 6265.46,2972.76 6265.77,2971.98 6268.42,2970.72 
	6269.51,2968.7 6268.73,2962.77 6269.36,2957.77 6266.08,2954.65 6265.77,2951.99 6268.42,2948.87 6275.14,2945.6 6278.88,2941.06 
	6285.44,2938.11 6289.65,2937.64 6290.74,2932.96 6288.71,2926.55 6291.37,2921.87 6292.61,2922.81 6294.34,2922.96 6297.3,2924.68 
	6299.32,2924.84 6302.44,2922.33 6309.78,2924.06 6314.31,2924.21 6319.15,2920.94 6323.83,2920.16 6325.56,2920.77 
	6333.05,2919.21 6333.98,2919.38 6335.54,2923.43 6337.88,2925.15 6343.35,2926.08 6346.47,2927.96 6349.59,2927.8 6352.4,2927.02 
	6354.27,2924.37 6354.27,2922.5 6359.12,2916.72 6363.8,2915.16 6364.73,2915.31 6367.7,2913.6 6372.38,2914.06 6376.44,2912.5 
	6381.75,2912.97 6383.15,2914.53 6384.71,2914.53 6385.81,2914.06 6386.27,2912.82 6389.86,2911.1 6392.2,2908.91 6399.54,2906.42 
	6401.26,2904.08 6404.07,2903.77 6405.94,2904.23 6407.66,2903.45 6409.53,2903.77 6410.31,2902.67 6414.05,2902.36 
	6414.83,2900.18 6416.09,2899.7 6417.49,2898.62 6422.49,2898.45 6424.2,2897.52 6425.46,2895.65 6427.64,2894.24 6429.05,2894.71 
	6432,2894.55 6440.9,2892.68 6441.37,2891.59 6440.44,2889.25 6440.9,2887.69 6445.9,2885.65 6447,2884.57 6451.83,2883.79 
	6453.24,2882.23 6455.73,2881.75 6456.68,2881.13 6458.7,2878.01 6461.36,2876.13 6466.04,2875.2 6467.29,2873.48 6467.44,2872.08 
	6466.66,2869.58 6467.75,2867.55 6469.94,2866.3 6473.69,2865.21 6476.03,2862.55 6475.71,2860.99 6474,2860.52 6471.66,2858.65 
	6469.78,2855.53 6467.29,2853.97 6466.98,2853.19 6470.41,2848.04 6472.44,2846.64 6472.59,2845.23 6473.69,2843.67 
	6475.88,2842.89 6475.88,2840.7 6477.9,2837.58 6479,2837.11 6479.31,2835.55 6482.12,2833.37 6483.99,2829.47 6483.37,2825.09 
	6481.65,2823.69 6481.17,2819.62 6479.31,2815.1 6480.71,2806.83 6484.3,2802.3 6484.77,2800.74 6484.46,2800.11 6483.68,2800.89 
	6482.27,2800.74 6479.31,2796.99 6474.93,2795.91 6475.25,2793.87 6474,2792.62 6473.69,2789.81 6470.88,2788.41 6470.88,2786.84 
	6469.63,2784.82 6470.1,2784.04 6471.97,2783.42 6471.97,2780.76 6471.03,2779.35 6471.66,2775.77 6472.9,2773.43 6474.63,2773.11 
	6477.12,2770.93 6479,2773.11 6479.61,2772.65 6481.02,2773.11 6482.27,2772.33 6482.58,2768.43 6485.08,2764.84 6488.83,2766.72 
	6491.32,2765.94 6492.88,2766.25 6496.48,2762.35 6499.75,2762.03 6501.63,2757.03 6503.66,2756.41 6505.53,2754.38 
	6506.78,2749.54 "/>
<polyline class="st1" points="6506.78,2749.54 6505.22,2746.11 6505.69,2743.14 6507.25,2740.33 6509.75,2739.86 6512.24,2742.21 
	6514.9,2739.71 6517.08,2740.02 6517.56,2738.15 6518.8,2738.46 6519.9,2740.18 6520.98,2740.33 6523.02,2738.46 6529.1,2737.99 
	6533.16,2736.59 6534.88,2734.87 6536.12,2736.11 6536.75,2738.15 6538.78,2739.4 6540.81,2738.46 6543.61,2735.5 6548.46,2736.11 
	6549.39,2735.33 6549.24,2734.09 6552.2,2730.81 6552.98,2726.91 6555.48,2727.53 6557.98,2726.91 6558.6,2725.35 6559.69,2724.41 
	6560.17,2722.38 6562.03,2720.82 6562.51,2718.32 6564.37,2716.76 6566.1,2716.45 6567.03,2714.57 6568.9,2713.18 6572.96,2713.64 
	6575.77,2714.89 6577.17,2717.54 6579.36,2716.14 6579.36,2713.48 6581.24,2709.89 6581.54,2707.55 6580.92,2705.21 
	6582.32,2702.09 6582.32,2696.62 6583.42,2694.75 6584.98,2694.91 6590.91,2692.72 6592.17,2693.82 6593.73,2693.82 
	6595.12,2694.75 6596.22,2694.44 6598.25,2695.06 6599.66,2694.28 6601.53,2691.32 6600.59,2688.67 6601.06,2686.79 
	6600.27,2681.18 6601.06,2676.96 6600.12,2675.4 6600.27,2672.28 6599.34,2671.81 6596.85,2666.96 6597.31,2663.69 6595.9,2659.94 
	6598.71,2656.98 6600.75,2657.29 6602.15,2656.35 6603.71,2656.5 6605.12,2654.79 6604.49,2652.14 6603.56,2650.89 6601.37,2649.64 
	6601.22,2647.62 6598.88,2646.21 6598.25,2641.99 6599.03,2640.74 6596.85,2638.4 6597.31,2637.16 6599.19,2635.59 6599.34,2627.63 
	6597.78,2625.45 6598.88,2622.64 6594.66,2615.77 6594.03,2612.33 6594.51,2611.24 6599.03,2605.16 6600.9,2604.38 6601.37,2603.59 
	6604.02,2604.06 6606.83,2601.41 6612.14,2598.45 6613.39,2595.94 6616.36,2595.79 6623.69,2590.48 6628.22,2589.4 6633.37,2585.02 
	6634.78,2585.18 6636.65,2587.21 6638.52,2587.52 6641.34,2585.18 6641.02,2583.77 6643.05,2583.3 6646.32,2579.08 6649.61,2578.31 
	6650.23,2576.74 6651.48,2576.13 6656.17,2575.5 6656.78,2574.72 6656.32,2573.31 6657.25,2572.06 6657.73,2568.79 6659.12,2567.84 
	6661.93,2567.06 6662.88,2568.32 6664.12,2568.94 6666.62,2567.84 6666.62,2566.6 6668.17,2565.5 6670.68,2564.57 6676.92,2563.79 
	6685.35,2551.62 6692.37,2546.31 6693.47,2545.37 6695.34,2545.06 6698.78,2541.31 6700.02,2541.16 6700.34,2540.06 
	6701.58,2540.06 6703.3,2538.35 6706.12,2536.94 6708.46,2536.32 6712.51,2532.26 6712.04,2530.38 6712.66,2529.45 6718.6,2525.55 
	6724.69,2522.43 6726.71,2520.55 6728.44,2519.93 6749.82,2503.06 6750.6,2503.38 6751.07,2505.1 6752.63,2504.01 6754.03,2504.47 
	6757.93,2500.42 6759.81,2499.79 6761.37,2500.1 6761.83,2499.48 6765.9,2499.94 6767.61,2497.92 6766.36,2496.2 6766.36,2493.7 
	6769.02,2491.67 6772.61,2490.11 6774.02,2490.58 6774.48,2492.61 6776.66,2493.08 6776.98,2492.14 6779.63,2490.43 
	6781.35,2487.77 6782.6,2487.62 6786.34,2484.96 6786.66,2483.25 6787.44,2482.47 6787.59,2480.43 6791.34,2477.94 6793.68,2477.16 
	6795.56,2475.28 6797.73,2474.5 6798.83,2476.69 6802.27,2477.16 6803.83,2474.97 6805.07,2474.81 6806.02,2473.88 6806.48,2471.23 
	6805.85,2470.76 6806.63,2469.98 6811.48,2468.26 6813.97,2466.38 6819.29,2464.04 6821.78,2464.67 6823.34,2463.26 
	6826.15,2463.89 6827.71,2460.45 6830.05,2460.14 6833.02,2460.61 6834.27,2458.27 6836.44,2457.33 6837.23,2455.46 6839.73,2453.9 
	6842.54,2453.28 6843.63,2454.21 6845.35,2454.06 6845.66,2452.33 6848,2450.77 6848.15,2449.84 6850.66,2449.53 6851.9,2450.31 
	6856.12,2449.84 6857.68,2449.21 6860.17,2447.19 6863.15,2446.87 6868.44,2443.44 6872.51,2442.19 6873.29,2441.25 
	6876.56,2441.41 6880.31,2439.38 6885.31,2438.45 6887.34,2436.72 6892.8,2435.16 6894.2,2433.92 6895.92,2434.08 6898.73,2432.52 
	6904.82,2432.52 6910.9,2429.23 6912.31,2429.23 6914.03,2428.45 6915.59,2426.74 6923.86,2425.49 6929.8,2421.74 6929.17,2419.72 
	6929.64,2419.09 6929.32,2417.69 6935.42,2414.72 6934.63,2410.35 6933.54,2408.63 6934,2406.76 6936.98,2406.76 6937.29,2407.38 
	6939.78,2408.16 6940.56,2405.82 6942.59,2406.29 6944.47,2405.04 6950.87,2403.64 6952.9,2400.82 6955.71,2398.48 6955.86,2395.99 
	6956.95,2394.43 6957.12,2391.46 6957.9,2390.06 6963.66,2383.81 7011.59,2338.38 7057.17,2293.59 7123.82,2230.69 7177.05,2178.55 
	7187.82,2166.53 7259.15,2097.38 "/>
<path class="st1" d="M6979.44,3742.3l0.46-1.71l1.71-0.63l1.26-2.34l4.68-4.84l4.68-1.88l2.96,2.03l3.75-0.78l6.24,0.47l3.27-2.34
	l3.44-0.78l5-3.44l1.56,0.78l2.96-1.71l3.6-3.9l4.83-2.81l1.09-2.34l3.44-3.12l5.15-3.12l3.27-0.47l4.22-2.34l7.02,5.46l1.71,2.03
	l1.56,0.15l4.22-1.09l2.97,1.88l3.9,0.63l2.34-0.47l0.47-2.82l1.88-2.34l0.93-2.49l5.31-2.81l2.49,4.22l2.66-0.48l3.75,1.56
	l1.25-2.18l0.15-1.72l1.56-3.27l4.53-3.44l1.56-2.49l1.09-0.31l1.4-1.88l2.34-0.93l0.78-2.34l3.27-4.53l0.63-3.59l1.41-2.34
	l-0.16-1.56l3.29-0.15l4.05-2.65l3.44,0.31l1.71,1.56l4.53-0.47l2.34,0.93l1.88,4.22l2.34,1.09l1.4,1.86l2.66,1.09l4.53-2.81
	l3.27,7.02l1.71,1.25l2.04-0.31l3.28,1.72l2.03-1.72l0.63-1.86l1.4-1.41l2.19-0.46l6.56,0.31l2.18-0.78l1.26,1.08l2.65-2.81
	l2.97-0.47l0.31,0.93l0.93-1.4l3.12-1.09l1.88,4.22l2.03,1.71l0.31,4.53l2.97,1.71l0.15,2.66l4.37,8.27l0.31,5.78l-1.09,4.83
	l7.02,12.49l0.63,3.59l0.78,0.78l1.71,0.48l2.81-1.09l0.78,0.47l8.12-0.78l5.46-3.27l3.44-1.26l3.59,2.04l2.81,0.47l11.71-0.94
	l3.28,2.19l1.88,0.93v-0.47 M760.47,2828.84l-5.15-3.27l-22.17-18.89 M5750.66,3231.25l-0.16,2.66l-1.25,2.18l-2.18,2.97l-2.97,1.56
	l-2.66,5.3l-1.4,1.26l-1.09,3.27l-1.71,2.03l-90.07,1.56l-96.78,0.31l-107.24-0.78l-198.08,3.59l-40.12,1.56l-157.51-0.47
	l-52.29,0.63l-39.64,1.56l-74.93-1.88l-200.12-1.72l-92.56-6.4l-39.02-3.75l-35.74-2.49l-85.24-2.66l-70.55-1.09l-40.75-0.15
	l-46.51,0.63l-5.15,0.78l-3.75,1.71l-22.32,0.15l-8.58,2.04l-87.88,6.08l-53.23,5.31l-10.46-0.16l-0.16,0.48l-162.96-1.41
	l-49.64-1.88l-63.69-1.4l-28.1,0.78l-38.24-1.41l-78.99-4.22l-66.66-1.88l-40.57-3.43l-110.36-5.31l-42.46-2.81l-45.42-3.44
	l-35.12-3.59l-24.98-1.1l-136.12-2.03l-32.93,13.58l0.3-3.75l-6.08-1.09l-1.09,7.8l-11.71,5.15l-23.73-21.38l-113.47,3.9
	l-41.21,0.47l-68.05,2.18l-267.24,5.78l-274.57,0.47l-179.51,2.04l-113.33,1.86l-99.27,2.5l3.59-34.66l-21.54-1.88l-126.75-14.67
	l-53.85-1.88l1.88,20.91l3.44,10.15l6.56,11.87l1.25,5.46l-0.15,5.93l9.37,31.37l3.43,21.39l1.26,12.95l3.59,12.65l1.56,11.24
	l0.15,7.8l0.94,4.83l-1.72,10.78l-1.56,5.93l-1.4,2.49l-0.48,3.12l0.31,3.59l-0.47,4.53l-1.56,3.9l-5.46,7.18l-4.68,4.53l-2.66,3.27
	l-196.2-5.77l-203.71-4.06l-55.26-1.88l-275.81-5.93l-27.17,0.16l-4.37,0.62l-13.73-0.93l-63.53-1.25l-136.43-4.38l-167.49-7.96
	l-73.37,5.93l-10.15,1.25l-24.03-0.62"/>
<polyline class="st1" points="7241.68,3734.18 7242.14,3730.6 7244.64,3729.04 7250.26,3726.85 7251.51,3725.13 7253.54,3723.72 
	7258.85,3722.32 7261.19,3716.23 7263.22,3713.43 7263.05,3709.68 7264.61,3706.4 7267.58,3707.18 7268.99,3706.87 7274.14,3707.5 
	7277.88,3709.84 7279.29,3711.71 7282.56,3712.49 7284.29,3712.65 7287.73,3708.9 7290.07,3702.35 7289.75,3701.25 7345.32,3586.67 
	7363.27,3553.89 7388.87,3500.04 7390.12,3499.74 7390.43,3498.79 7392.77,3497.7 7393.71,3496.14 7398.08,3493.49 7401.05,3493.65 
	7403.23,3492.24 7407.6,3490.99 7410.56,3487.4 7414.93,3485.06 7417.44,3482.57 7418.53,3479.45 7425.56,3470.38 7426.49,3466.96 
	7428.52,3465.86 7430.71,3463.36 7431.95,3462.74 7435.7,3457.43 7437.42,3458.06 7440.69,3455.09 7441.63,3455.4 7447.88,3449.79 
	7455.05,3444.94 7458.34,3444.32 7461.61,3442.6 7464.88,3442.76 7471.6,3439.33 7475.97,3438.55 7477.69,3435.89 7481.44,3433.86 
	7482.22,3434.18 7484.24,3431.05 7487.21,3430.58 7489.08,3426.68 7491.12,3425.74 7490.8,3429.18 7492.05,3432.14 7493.61,3433.08 
	7493.46,3437.14 7495.02,3441.67 7499.23,3442.45 7502.82,3441.98 7505,3440.72 7507.66,3442.91 7509.85,3446.04 7510.78,3446.5 
	7511.87,3446.19 7513.27,3447.28 7514.37,3447.13 7514.53,3448.84 7518.43,3451.35 7521.71,3449.31 7524.98,3449.79 
	7528.27,3452.75 7530.76,3452.43 7532,3451.5 7536.22,3451.65 7541.85,3448.84 7544.81,3444.94 7549.49,3446.82 7552.3,3446.5 
	7553.39,3446.82 7556.51,3449.01 7559.02,3449.31 7561.2,3451.97 7566.19,3451.81 7571.5,3452.43 7573.07,3446.19 7572.75,3443.54 
	7570.1,3439.94 7564.32,3439.64 7561.66,3438.55 7557.61,3434.96 7555.12,3429.8 7554.64,3427.62 7556.36,3426.37 7555.12,3422.31 
	7551.68,3418.88 7552.3,3414.98 7549.65,3412.48 7549.34,3409.82 7547.61,3409.82 7545.75,3404.83 7543.71,3403.42 7544.49,3400.62 
	7547.15,3399.37 7548.24,3396.55 7547,3394.52 7547.31,3392.03 7548.39,3390.47 7548.39,3389.22 7545.44,3385.79 7542.78,3386.72 
	7539.34,3386.25 7538.41,3385.32 7539.19,3379.38 7538.56,3378.6 7536.69,3378.3 7536.22,3377.04 7536.85,3374.55 7536.38,3372.52 
	7537.16,3370.79 7535.6,3368.93 7535.29,3366.27 7538.88,3364.87 7540.59,3366.11 7542,3365.96 7542.31,3363.62 7546.53,3361.74 
	7546.53,3360.03 7547.78,3359.4 7548.24,3357.22 7550.74,3356.44 7551.36,3354.1 7552.46,3354.57 7553.71,3353.94 7554.95,3351.28 
	7556.05,3344.74 7552.77,3340.83 7555.42,3339.42 7558.54,3336.62 7557.61,3335.21 7558.54,3331.77 7555.9,3329.75 7555.27,3328.03 
	7558.85,3325.53 7558.07,3321.01 7556.83,3320.54 7556.98,3316.79 7555.27,3314.92 7557.92,3312.74 7561.98,3311.18 
	7562.92,3308.05 7569.31,3305.4 7571.03,3305.55 7574.63,3301.5 7573.53,3298.69 7574.78,3294.62 7574.46,3293.38 7573.07,3292.28 
	7572.59,3289.16 7573.07,3286.67 7571.66,3283.38 7571.03,3278.23 7570.56,3277.92 7572.44,3274.02 7571.19,3271.37 
	7570.88,3268.55 7568.07,3266.37 7567.91,3264.03 7570.25,3261.69 7569.63,3259.81 7570.41,3257.79 7569.31,3256.84 
	7569.63,3254.82 7566.98,3249.2 7566.98,3247.96 7565.56,3245.61 7565.41,3243.74 7564.48,3241.55 7563.39,3239.99 7559.17,3237.33 
	7559.64,3232.65 7558.54,3228.45 7558.39,3224.23 7559.02,3223.6 7561.66,3222.98 7565.88,3222.67 7565.56,3219.38 7567.6,3213.92 
	7569.78,3210.49 7571.03,3206.11 7573.68,3205.33 7574,3204.72 7572.75,3200.65 7573.53,3199.4 7573.22,3197.69 7573.85,3194.72 
	7572.44,3192.85 7571.19,3188.94 7571.81,3186.92 7572.75,3185.98 7576.34,3186.6 7578.83,3185.67 7582.12,3185.52 7584.77,3183.01 
	7584.3,3178.49 7582.27,3174.28 7583.99,3170.99 7582.73,3170.21 7582.27,3168.35 7581.02,3166.62 7583.21,3163.19 "/>
<line class="st1" x1="375.22" y1="3369.86" x2="424.86" y2="3371.74"/>
</svg>
